<svg width="1193" height="336" viewBox="0 0 1193 336" fill="none" xmlns="http://www.w3.org/2000/svg">
<path d="M190.813 161.761C208.881 168.231 222.95 178.399 233.02 192.264C243.387 205.821 248.57 221.689 248.57 239.868C248.57 259.587 242.35 276.688 229.91 291.169C217.47 305.651 200.588 316.743 179.262 324.446C158.233 332.149 135.13 336 109.954 336C88.6289 336 67.3034 333.227 45.9779 327.681C24.9486 322.135 4.95598 313.662 -14 302.261L8.21404 248.649C21.8387 257.276 36.7961 263.901 53.0864 268.523C69.6729 272.836 85.8151 274.993 101.513 274.993C122.839 274.993 140.462 270.988 154.382 262.977C168.599 254.966 175.708 243.719 175.708 229.238C175.708 217.221 170.821 208.132 161.047 201.97C151.569 195.807 138.536 192.726 121.95 192.726H45.9779V136.341H116.619C131.132 136.341 142.387 133.26 150.384 127.098C158.677 120.935 162.824 112.462 162.824 101.678C162.824 89.0454 156.9 79.1857 145.053 72.099C133.501 65.0124 118.544 61.4691 100.18 61.4691C86.5556 61.4691 72.4867 63.4718 57.9735 67.4773C43.4603 71.1747 29.6876 76.8748 16.6554 84.5777L-5.11438 26.3439C27.7624 8.78129 63.3049 0 101.513 0C125.8 0 148.163 3.69738 168.599 11.0922C189.036 18.4869 205.327 29.271 217.47 43.4443C229.614 57.6176 235.686 74.1018 235.686 92.8968C235.686 108.303 231.687 122.014 223.69 134.03C215.693 146.047 204.734 155.29 190.813 161.761Z" fill="white" fill-opacity="0.02"/>
<path d="M396.182 1.38653C426.986 1.38653 454.531 8.62724 478.819 23.1087C503.402 37.282 522.654 57.1554 536.575 82.729C550.496 107.994 557.456 136.649 557.456 168.693C557.456 200.737 550.496 229.546 536.575 255.12C522.654 280.385 503.402 300.259 478.819 314.74C454.531 328.913 426.986 336 396.182 336C368.637 336 343.757 331.07 321.543 321.21C299.625 311.351 281.262 297.023 266.452 278.228L312.213 233.86C334.131 259.433 360.936 272.22 392.628 272.22C415.434 272.22 434.687 265.287 450.385 251.422C466.379 237.557 476.745 218.916 481.484 195.499H355.308V138.19H480.596C475.56 116.005 465.194 98.2888 449.496 85.0399C433.798 71.7909 414.842 65.1665 392.628 65.1665C360.936 65.1665 334.131 77.9532 312.213 103.527L266.452 59.1582C281.262 40.3631 299.625 26.0358 321.543 16.1761C343.757 6.31638 368.637 1.38653 396.182 1.38653Z" fill="white" fill-opacity="0.02"/>
<path d="M739.552 6.93259C767.098 6.93259 790.941 11.7084 811.082 21.26C831.518 30.8116 847.216 44.3686 858.175 61.9312C869.134 79.4938 874.614 100.292 874.614 124.325C874.614 148.05 869.134 168.847 858.175 186.718C847.216 204.281 831.518 217.838 811.082 227.389C790.941 236.633 767.098 241.254 739.552 241.254H676.909V330.454H604.935V6.93259H739.552ZM735.554 180.248C757.175 180.248 773.614 175.472 784.869 165.92C796.124 156.061 801.752 142.195 801.752 124.325C801.752 106.146 796.124 92.2806 784.869 82.729C773.614 72.8693 757.175 67.9395 735.554 67.9395H676.909V180.248H735.554Z" fill="white" fill-opacity="0.02"/>
<path d="M1064.6 336C1032.91 336 1004.18 328.913 978.412 314.74C952.94 300.259 932.799 280.385 917.99 255.12C903.477 229.546 896.22 200.737 896.22 168.693C896.22 136.649 903.477 107.994 917.99 82.729C932.799 57.1554 952.94 37.282 978.412 23.1087C1004.18 8.62724 1033.06 1.38653 1065.05 1.38653C1092 1.38653 1116.29 6.31638 1137.91 16.1761C1159.83 26.0358 1178.19 40.2091 1193 58.696L1146.79 103.065C1125.77 77.7992 1099.7 65.1665 1068.6 65.1665C1049.35 65.1665 1032.17 69.6341 1017.06 78.5695C1001.96 87.1967 990.112 99.3673 981.522 115.081C973.229 130.795 969.082 148.666 969.082 168.693C969.082 188.721 973.229 206.591 981.522 222.305C990.112 238.019 1001.96 250.344 1017.06 259.279C1032.17 267.906 1049.35 272.22 1068.6 272.22C1099.7 272.22 1125.77 259.433 1146.79 233.86L1193 278.228C1178.19 297.023 1159.83 311.351 1137.91 321.21C1115.99 331.07 1091.56 336 1064.6 336Z" fill="white" fill-opacity="0.02"/>
</svg>
