<svg width="33" height="33" viewBox="0 0 33 33" fill="none" xmlns="http://www.w3.org/2000/svg">
<g clip-path="url(#clip0_167_103)">
<path d="M32.2137 27.1503C21.867 20.8908 11.5201 33.4098 1.17285 27.1503C1.17285 20.1958 1.17285 13.2412 1.17285 6.28669C11.5201 12.5457 21.867 0.0276542 32.2137 6.28669V27.1503Z" fill="#CCCBCA"/>
<path d="M31.9651 26.7446C21.7884 20.8829 11.6102 32.8952 1.43311 27.0461C1.43311 24.7556 1.43311 22.4652 1.43311 20.1757C11.6103 26.0258 21.7884 14.0136 31.9651 19.8759V26.7446Z" fill="#DE2226"/>
<path d="M31.9635 13.2592C21.7867 7.3995 11.6104 19.4095 1.43408 13.5612C1.43408 11.2712 1.43408 8.98073 1.43408 6.69084C11.6104 12.5392 21.7867 0.529019 31.9635 6.3888V13.2592Z" fill="#1AAC50"/>
<path d="M31.1304 11.8466C30.5257 11.5547 29.9207 11.3228 29.3169 11.1428V11.283C29.9207 11.4631 30.5257 11.695 31.1304 11.9868C31.1304 11.9399 31.1304 11.8934 31.1304 11.8466Z" fill="white"/>
<path d="M31.8263 12.2095V12.7679C31.7808 12.742 31.7334 12.7161 31.6878 12.6911C31.6878 12.5048 31.6878 12.319 31.6878 12.1327C31.6405 12.1072 31.595 12.0823 31.5477 12.0574V12.6158C31.5021 12.5916 31.4547 12.5675 31.4091 12.5438C31.4091 12.3575 31.4091 12.1713 31.4091 11.9854C31.3618 11.9613 31.3162 11.9376 31.269 11.9145V12.1941C31.0831 12.1015 30.8974 12.0148 30.7114 11.9333V12.3514C30.8518 12.4127 30.9901 12.4768 31.1305 12.5443C31.1305 12.4978 31.1305 12.4513 31.1305 12.4049C31.0375 12.3602 30.9447 12.3168 30.8518 12.2747C30.8518 12.2283 30.8518 12.1818 30.8518 12.1354C30.9901 12.1981 31.1305 12.2642 31.269 12.3334V12.6122C31.5021 12.728 31.7334 12.8528 31.9666 12.9865C31.9666 12.7542 31.9666 12.5215 31.9666 12.2888C31.9192 12.2621 31.8735 12.2354 31.8263 12.2095Z" fill="white"/>
<path d="M29.4563 11.6043C29.5957 11.6476 29.735 11.6937 29.8743 11.7427V12.0215C30.1067 12.1034 30.3398 12.1934 30.5722 12.2915C30.5722 12.1521 30.5722 12.0127 30.5722 11.8733C30.4327 11.8147 30.2933 11.7585 30.1541 11.7055V11.845C30.2468 11.8804 30.3398 11.9173 30.4327 11.9549V12.0943C30.2933 12.0373 30.1541 11.9834 30.0146 11.9326C30.0146 11.8396 30.0146 11.7467 30.0146 11.6538C29.7824 11.5687 29.5492 11.4916 29.3169 11.4224V11.8405C29.3634 11.8545 29.4099 11.8685 29.4563 11.883C29.4563 11.7901 29.4563 11.6971 29.4563 11.6043Z" fill="white"/>
<path d="M29.735 11.9732C29.735 11.9267 29.735 11.8803 29.735 11.8339C29.6886 11.8181 29.6422 11.8027 29.5957 11.7878V11.9272C29.6422 11.9422 29.6886 11.9575 29.735 11.9732Z" fill="white"/>
<path d="M30.7077 12.6255C30.6604 12.6048 30.6148 12.5847 30.5674 12.565C30.5674 12.5203 30.5674 12.4752 30.5674 12.4301C30.1486 12.2534 29.7314 12.104 29.3123 11.9795V12.1145C29.2669 12.1009 29.2195 12.0873 29.1739 12.0742C29.1739 12.0295 29.1739 11.9843 29.1739 11.9392C28.7559 11.8204 28.3377 11.7262 27.9195 11.6543V11.7893C27.873 11.7814 27.8266 11.7735 27.7801 11.7661C27.7801 11.7209 27.7801 11.6763 27.7801 11.6311C27.3611 11.5641 26.944 11.5185 26.525 11.493V11.628C26.4785 11.6248 26.432 11.6223 26.3856 11.62C26.3856 11.5749 26.3856 11.5298 26.3856 11.4851C25.9675 11.4636 25.5494 11.4609 25.1312 11.4755V11.6104C25.0847 11.6122 25.0383 11.6139 24.9918 11.6157C24.9918 11.571 24.9918 11.5258 24.9918 11.4807C24.5738 11.4987 24.1556 11.5333 23.7375 11.5815V11.7165C23.6901 11.7222 23.6445 11.7274 23.5971 11.7331C23.5971 11.6884 23.5971 11.6433 23.5971 11.5981C23.18 11.6499 22.761 11.7147 22.3436 11.791V11.926C22.2964 11.9343 22.2508 11.9431 22.2034 11.9518C22.2034 11.9067 22.2034 11.8615 22.2034 11.8168C21.7862 11.8953 21.3672 11.9847 20.9499 12.0824V12.2174C20.9025 12.2284 20.857 12.2398 20.8097 12.2507C20.8097 12.2056 20.8097 12.1609 20.8097 12.1157C20.3924 12.2157 19.9735 12.3235 19.5562 12.437V12.572C19.5088 12.5847 19.4633 12.5974 19.4159 12.6101C19.4159 12.5649 19.4159 12.5202 19.4159 12.4751C18.9978 12.59 18.5797 12.71 18.1615 12.8332V12.9682C18.115 12.9818 18.0686 12.9953 18.0222 13.0094C18.0222 12.9643 18.0222 12.9191 18.0222 12.8744C17.6041 12.998 17.1859 13.1243 16.7678 13.2509V13.3859C16.7213 13.3998 16.6748 13.4139 16.6283 13.4279C16.6283 13.3828 16.6283 13.3376 16.6283 13.2929C16.2098 13.4192 15.7916 13.5458 15.3732 13.6694V13.8043C15.3271 13.8184 15.2806 13.8319 15.2346 13.8456C15.2346 13.8004 15.2346 13.7553 15.2346 13.7106C14.816 13.8337 14.398 13.9539 13.9794 14.0691V14.204C13.9329 14.2168 13.8866 14.2295 13.8401 14.2417C13.8401 14.197 13.8401 14.1519 13.8401 14.1067C13.4219 14.2207 13.0038 14.3285 12.5857 14.4284V14.5634C12.5392 14.5744 12.4927 14.5857 12.4463 14.5963C12.4463 14.5516 12.4463 14.5064 12.4463 14.4613C12.0282 14.5594 11.6101 14.6493 11.1919 14.7278V14.8628C11.1454 14.8715 11.099 14.8803 11.0525 14.8886C11.0525 14.8439 11.0525 14.7987 11.0525 14.7536C10.6343 14.8302 10.2162 14.8952 9.79819 14.9468V15.0818C9.75137 15.0875 9.70489 15.0932 9.65796 15.0989C9.65796 15.0537 9.65796 15.0085 9.65796 14.9639C9.24027 15.0122 8.82214 15.0468 8.40445 15.0651V15.2001C8.35752 15.2019 8.31115 15.204 8.26422 15.2053C8.26422 15.1607 8.26422 15.1155 8.26422 15.0704C7.84609 15.0852 7.42807 15.0831 7.00982 15.0615V15.1965C6.96334 15.1943 6.91697 15.1917 6.87048 15.189C6.87048 15.1439 6.87048 15.0987 6.87048 15.0541C6.4519 15.0282 6.03377 14.9835 5.6153 14.9165V15.0515C5.56926 15.044 5.52278 15.0366 5.47685 15.0287C5.47685 14.9835 5.47685 14.9388 5.47685 14.8937C5.05872 14.8219 4.64059 14.7281 4.22245 14.6097V14.7446C4.17597 14.7315 4.12949 14.7179 4.083 14.7043C4.083 14.6592 4.083 14.6145 4.083 14.5693C3.66442 14.4453 3.24629 14.2962 2.82782 14.1197V14.2547C2.78134 14.2354 2.73485 14.2152 2.68848 14.1951C2.68848 14.15 2.68848 14.1048 2.68848 14.0601C2.27035 13.8778 1.85221 13.6674 1.43408 13.4272C1.43453 15.7216 1.43542 18.0164 1.43587 20.3103C1.854 20.5505 2.27214 20.7609 2.69027 20.9432C2.69027 20.8993 2.69027 20.8537 2.69027 20.8099C2.73675 20.8292 2.78324 20.8495 2.82961 20.8696V21.0028C3.24819 21.1798 3.66632 21.3288 4.08479 21.4524C4.08479 21.4077 4.08479 21.3629 4.08479 21.3183C4.13083 21.3323 4.17731 21.3455 4.22335 21.3586V21.4927C4.64148 21.611 5.0595 21.7047 5.47775 21.7758C5.47775 21.7319 5.47775 21.6863 5.47775 21.6426C5.52423 21.6496 5.5706 21.6584 5.61709 21.6654V21.7995C6.03567 21.8661 6.4538 21.9108 6.87227 21.937C6.87227 21.8915 6.87227 21.8475 6.87227 21.8021C6.91831 21.8055 6.96479 21.8073 7.01072 21.8099V21.944C7.42885 21.965 7.84698 21.9668 8.26511 21.9527C8.26511 21.9081 8.26511 21.8633 8.26511 21.8186C8.3116 21.8168 8.35808 21.8151 8.40457 21.8133V21.9474C8.82315 21.929 9.24128 21.8948 9.65975 21.8458C9.65975 21.8012 9.65975 21.7564 9.65975 21.7117C9.70578 21.7064 9.75227 21.7003 9.79819 21.6951V21.8292C10.2167 21.7775 10.6348 21.7126 11.0534 21.6356C11.0534 21.5917 11.0534 21.5461 11.0534 21.5023C11.0994 21.4935 11.1459 21.4848 11.1919 21.4761V21.6101C11.6105 21.5322 12.0285 21.4418 12.4471 21.3436C12.4471 21.299 12.4471 21.2542 12.4471 21.2096C12.4936 21.199 12.54 21.1877 12.5865 21.1762V21.3112C13.0046 21.2113 13.4227 21.1027 13.8409 20.9886C13.8409 20.9448 13.8409 20.8992 13.8409 20.8554C13.8869 20.8423 13.9334 20.8291 13.9793 20.8168V20.9518C14.3979 20.8362 14.816 20.7161 15.2345 20.5924C15.2345 20.5486 15.2345 20.503 15.2345 20.4592C15.2805 20.4452 15.327 20.4311 15.373 20.4171V20.5521C15.7916 20.4277 16.2098 20.3015 16.6282 20.1752C16.6282 20.1305 16.6282 20.0858 16.6282 20.0411C16.6743 20.0271 16.7207 20.0131 16.7667 19.999V20.1331C17.1857 20.0068 17.6029 19.8807 18.022 19.7562C18.022 19.7124 18.022 19.6668 18.022 19.623C18.0683 19.609 18.1148 19.595 18.1613 19.5809V19.716C18.5793 19.5924 18.9975 19.4722 19.4157 19.3574C19.4157 19.3127 19.4157 19.268 19.4157 19.2233C19.4613 19.2111 19.5086 19.1978 19.5541 19.1857V19.3197C19.9732 19.2057 20.3903 19.0979 20.8093 18.998C20.8093 18.9533 20.8093 18.9085 20.8093 18.864C20.8558 18.8533 20.9022 18.8421 20.9487 18.8305V18.9656C21.3668 18.8674 21.7848 18.7779 22.2031 18.6991C22.2031 18.6544 22.2031 18.6096 22.2031 18.5649C22.2487 18.5562 22.296 18.5475 22.3415 18.5396V18.6727C22.7605 18.5973 23.1778 18.5324 23.5967 18.4798C23.5967 18.436 23.5967 18.3904 23.5967 18.3466C23.6432 18.3405 23.6897 18.3352 23.7361 18.3292V18.4641C24.1542 18.4151 24.5723 18.3818 24.9904 18.3625C24.9904 18.3186 24.9904 18.2731 24.9904 18.2293C25.0369 18.2275 25.0834 18.2258 25.1299 18.224V18.3572C25.5479 18.3431 25.966 18.3457 26.3843 18.3677C26.3843 18.3221 26.3843 18.2783 26.3843 18.2327C26.4307 18.2353 26.4771 18.238 26.5236 18.2414V18.3746C26.9418 18.4009 27.3598 18.4457 27.778 18.5131C27.778 18.4676 27.778 18.4237 27.778 18.3782C27.8245 18.386 27.8709 18.394 27.9174 18.4018V18.5359C28.3355 18.6078 28.7535 18.7025 29.1718 18.8208C29.1718 18.7761 29.1718 18.7314 29.1718 18.6867C29.2182 18.6999 29.2646 18.713 29.3111 18.7271V18.8621C29.7292 18.9855 30.1474 19.1355 30.5654 19.3116C30.5654 19.267 30.5654 19.2222 30.5654 19.1775C30.6119 19.1968 30.6584 19.2171 30.7048 19.2372V19.3713C31.123 19.5545 31.5411 19.7647 31.9592 20.0049C31.9592 17.711 31.961 15.4171 31.961 13.1233C31.5439 12.8832 31.1249 12.6728 30.7075 12.4899C30.7077 12.5351 30.7077 12.5803 30.7077 12.6255Z" fill="white"/>
<path d="M28.3411 10.8964C27.7362 10.7702 27.1332 10.6922 26.5283 10.6548V10.7951C27.1332 10.8323 27.7362 10.9104 28.3411 11.0366C28.3411 10.9898 28.3411 10.9434 28.3411 10.8964Z" fill="white"/>
<path d="M27.9224 11.5144C28.0627 11.5386 28.2012 11.5648 28.3414 11.5942C28.3414 11.5477 28.3414 11.5012 28.3414 11.4548C28.2484 11.4355 28.1556 11.4171 28.0627 11.4C28.0627 11.3535 28.0627 11.3072 28.0627 11.2607C28.2012 11.2861 28.3414 11.3145 28.4798 11.3453V11.624C28.713 11.6753 28.9443 11.7336 29.1775 11.7998C29.1775 11.5675 29.1775 11.3349 29.1775 11.1021C29.1312 11.0889 29.0847 11.0763 29.0382 11.0636V11.6219C28.9917 11.6092 28.9453 11.5969 28.8989 11.5851C28.8989 11.3988 28.8989 11.2125 28.8989 11.0267C28.8524 11.0145 28.8059 11.003 28.7595 10.9917V11.5501C28.713 11.5382 28.6666 11.5273 28.6201 11.5163C28.6201 11.3305 28.6201 11.1442 28.6201 10.958C28.5728 10.947 28.5272 10.9365 28.4798 10.9265V11.206C28.294 11.1648 28.1082 11.1285 27.9224 11.0965V11.5144Z" fill="white"/>
<path d="M26.6686 11.0836C26.807 11.0936 26.9473 11.1055 27.0858 11.1204V11.3991C27.319 11.4233 27.5503 11.4539 27.7835 11.4912C27.7835 11.3519 27.7835 11.2124 27.7835 11.0731C27.6433 11.0507 27.5048 11.0306 27.3645 11.013V11.1524C27.4574 11.1642 27.5503 11.177 27.6433 11.191V11.3303C27.5048 11.3093 27.3645 11.2908 27.226 11.2751C27.226 11.1821 27.226 11.0893 27.226 10.9963C26.9929 10.9696 26.7615 10.9489 26.5283 10.9345V11.3526C26.5757 11.3557 26.6213 11.3588 26.6686 11.3623C26.6686 11.2694 26.6686 11.1765 26.6686 11.0836Z" fill="white"/>
<path d="M26.9457 11.385C26.9457 11.3385 26.9457 11.2921 26.9457 11.2457C26.9001 11.2412 26.8527 11.2373 26.8071 11.2334V11.3727C26.8527 11.3768 26.9001 11.3807 26.9457 11.385Z" fill="white"/>
<path d="M25.552 10.6285C24.9472 10.633 24.344 10.6737 23.7393 10.7434V10.8836C24.344 10.8139 24.9472 10.7732 25.552 10.7688C25.552 10.7224 25.552 10.6755 25.552 10.6285Z" fill="white"/>
<path d="M25.1338 11.3352C25.2731 11.3304 25.4125 11.3273 25.5519 11.3264C25.5519 11.2799 25.5519 11.2334 25.5519 11.1869C25.459 11.1878 25.366 11.1892 25.2731 11.1914C25.2731 11.1449 25.2731 11.0984 25.2731 11.0519C25.4125 11.0485 25.5519 11.0471 25.6913 11.0471V11.3259C25.9235 11.3268 26.1558 11.333 26.3881 11.3447C26.3881 11.1119 26.3881 10.8798 26.3881 10.647C26.3425 10.6448 26.2951 10.6426 26.2496 10.6404V11.1988C26.2023 11.197 26.1567 11.1953 26.1093 11.194C26.1093 11.0077 26.1093 10.8214 26.1093 10.6356C26.0638 10.6338 26.0164 10.6326 25.9708 10.6317V11.1901C25.9235 11.1892 25.878 11.1883 25.8306 11.1878C25.8306 11.0015 25.8306 10.8153 25.8306 10.6295C25.7841 10.6286 25.7376 10.6286 25.6913 10.6281V10.9078C25.5054 10.9074 25.3196 10.9104 25.1338 10.917V11.3352Z" fill="white"/>
<path d="M23.8795 11.1467C24.0179 11.1317 24.1582 11.1182 24.2966 11.1063V11.3851C24.5298 11.3655 24.7612 11.3505 24.9944 11.3404C24.9944 11.2011 24.9944 11.0616 24.9944 10.9223C24.855 10.9284 24.7156 10.9364 24.5763 10.9455V11.085C24.6683 11.0789 24.7612 11.0732 24.8541 11.0683V11.2077C24.7156 11.2151 24.5754 11.2239 24.437 11.2344C24.437 11.1414 24.437 11.0486 24.437 10.9556C24.2038 10.9736 23.9723 10.9959 23.7393 11.0231V11.4412C23.7865 11.4355 23.8321 11.4302 23.8795 11.4254C23.8795 11.3325 23.8795 11.2395 23.8795 11.1467Z" fill="white"/>
<path d="M24.1574 11.3973C24.1574 11.3509 24.1574 11.3044 24.1574 11.258C24.111 11.2624 24.0646 11.2667 24.0181 11.2716V11.411C24.0646 11.4062 24.111 11.4017 24.1574 11.3973Z" fill="white"/>
<path d="M22.763 10.8802C22.1591 10.9792 21.5551 11.1028 20.9512 11.2443V11.3846C21.5551 11.243 22.1591 11.1194 22.763 11.0204C22.763 10.9735 22.763 10.9271 22.763 10.8802Z" fill="white"/>
<path d="M22.3457 11.6503C22.4841 11.6248 22.6244 11.6008 22.7628 11.578C22.7628 11.5315 22.7628 11.485 22.7628 11.4385C22.67 11.4539 22.577 11.4697 22.485 11.4859C22.485 11.4394 22.485 11.393 22.485 11.3465C22.6244 11.3219 22.7637 11.2988 22.9031 11.2767V11.5555C23.1354 11.5187 23.3677 11.4863 23.5999 11.4578C23.5999 11.225 23.5999 10.9923 23.5999 10.7599C23.5535 10.7656 23.507 10.7713 23.4605 10.7775V11.3359C23.4142 11.342 23.3677 11.348 23.3212 11.3543C23.3212 11.1685 23.3212 10.9822 23.3212 10.7959C23.2747 10.8025 23.2282 10.8091 23.1819 10.8156V11.374C23.1354 11.3806 23.0889 11.3876 23.0425 11.3946C23.0425 11.2084 23.0425 11.0221 23.0425 10.8363C22.996 10.8433 22.9495 10.8502 22.9031 10.8577V11.1373C22.7172 11.1662 22.5314 11.1982 22.3457 11.2319V11.6503Z" fill="white"/>
<path d="M21.0905 11.631C21.23 11.5989 21.3693 11.5679 21.5086 11.538V11.8168C21.741 11.7669 21.9733 11.7199 22.2055 11.6761C22.2055 11.5367 22.2055 11.3973 22.2055 11.258C22.067 11.2843 21.9268 11.3115 21.7883 11.3399V11.4792C21.8812 11.4605 21.9742 11.442 22.0661 11.424V11.5634C21.9268 11.5901 21.7873 11.6187 21.648 11.6475C21.648 11.5546 21.648 11.4617 21.648 11.3687C21.4158 11.4178 21.1835 11.4695 20.9512 11.5239V11.9421C20.9977 11.9311 21.0441 11.9206 21.0905 11.9096C21.0905 11.8168 21.0905 11.7238 21.0905 11.631Z" fill="white"/>
<path d="M21.3693 11.8471C21.3693 11.8006 21.3693 11.7541 21.3693 11.7078C21.3228 11.7183 21.2764 11.7283 21.23 11.7388V11.8782C21.2764 11.8677 21.3228 11.8575 21.3693 11.8471Z" fill="white"/>
<path d="M19.9745 11.4873C19.3705 11.6455 18.7664 11.8174 18.1626 11.9948V12.1351C18.7664 11.9575 19.3705 11.7858 19.9745 11.6275C19.9745 11.5806 19.9745 11.5341 19.9745 11.4873Z" fill="white"/>
<path d="M19.5566 12.2968C19.696 12.2586 19.8353 12.2213 19.9748 12.185C19.9748 12.1385 19.9748 12.092 19.9748 12.0457C19.8827 12.0697 19.7898 12.0943 19.6969 12.1193C19.6969 12.0728 19.6969 12.0263 19.6969 11.98C19.8353 11.9428 19.9757 11.9059 20.1141 11.87V12.1487C20.3473 12.0887 20.5786 12.0308 20.8118 11.9752C20.8118 11.7429 20.8118 11.5101 20.8118 11.2773C20.7644 11.2887 20.7189 11.2997 20.6716 11.3111V11.8695C20.626 11.8809 20.5786 11.8923 20.5331 11.9036C20.5331 11.7174 20.5331 11.5311 20.5331 11.3453C20.4867 11.3567 20.4402 11.3681 20.3937 11.3799V11.9383C20.3473 11.9497 20.3008 11.9615 20.2543 11.9733C20.2543 11.787 20.2543 11.6012 20.2543 11.4149C20.207 11.4266 20.1615 11.4389 20.1141 11.4508V11.7303C19.9283 11.7786 19.7425 11.8277 19.5566 11.8785V12.2968Z" fill="white"/>
<path d="M18.3015 12.373C18.4418 12.3322 18.5802 12.2918 18.7206 12.2516V12.5304C18.9528 12.4638 19.1851 12.3984 19.4174 12.3345C19.4174 12.1952 19.4174 12.0558 19.4174 11.9164C19.2779 11.9549 19.1386 11.9935 18.9992 12.0329V12.1723C19.0922 12.146 19.1851 12.1201 19.2779 12.0943V12.2337C19.1386 12.2723 18.9992 12.3117 18.8599 12.3512C18.8599 12.2582 18.8599 12.1653 18.8599 12.0724C18.6276 12.1385 18.3954 12.206 18.1631 12.2744V12.6925C18.2086 12.6789 18.2559 12.6654 18.3015 12.6517C18.3015 12.5588 18.3015 12.4659 18.3015 12.373Z" fill="white"/>
<path d="M18.5799 12.5706C18.5799 12.5241 18.5799 12.4776 18.5799 12.4313C18.5344 12.4448 18.487 12.458 18.4414 12.4715V12.611C18.487 12.5974 18.5343 12.5842 18.5799 12.5706Z" fill="white"/>
<path d="M17.1862 12.2863C16.5818 12.4685 15.9779 12.6527 15.3735 12.8314V12.9717C15.9779 12.7929 16.5818 12.6087 17.1862 12.4265C17.1862 12.38 17.1862 12.3331 17.1862 12.2863Z" fill="white"/>
<path d="M16.7681 13.1105C16.9074 13.0681 17.0467 13.026 17.1861 12.9839C17.1861 12.9375 17.1861 12.891 17.1861 12.8445C17.0932 12.8725 17.0003 12.9006 16.9074 12.9286C16.9074 12.8821 16.9074 12.8357 16.9074 12.7892C17.0467 12.7472 17.1861 12.705 17.3255 12.6635V12.9423C17.5577 12.8721 17.79 12.8025 18.0224 12.7341C18.0224 12.5013 18.0224 12.2687 18.0224 12.0364C17.9759 12.05 17.9294 12.0635 17.8829 12.0776V12.636C17.8365 12.6496 17.79 12.6636 17.7436 12.6777C17.7436 12.4914 17.7436 12.3051 17.7436 12.1193C17.698 12.1329 17.6507 12.1469 17.6051 12.1605V12.7189C17.5577 12.7329 17.5121 12.7469 17.4649 12.7609C17.4649 12.5746 17.4649 12.3888 17.4649 12.2025C17.4184 12.2166 17.3719 12.2306 17.3255 12.2447V12.5242C17.1396 12.58 16.9539 12.636 16.7681 12.6925V13.1105Z" fill="white"/>
<path d="M15.5138 13.2092C15.6528 13.1675 15.7921 13.1259 15.931 13.0843V13.363C16.1638 13.2933 16.3961 13.2228 16.6288 13.1528C16.6288 13.0133 16.6288 12.874 16.6288 12.7346C16.4894 12.7767 16.35 12.8188 16.2107 12.8609V13.0002C16.3031 12.9722 16.3961 12.9441 16.4885 12.9165V13.0559C16.3496 13.0976 16.2102 13.1397 16.0712 13.1817C16.0712 13.0887 16.0712 12.9959 16.0712 12.9029C15.8385 12.973 15.6062 13.0422 15.3735 13.1111V13.5292C15.4204 13.5156 15.4668 13.5016 15.5138 13.488C15.5138 13.395 15.5138 13.3021 15.5138 13.2092Z" fill="white"/>
<path d="M15.7917 13.4047C15.7917 13.3582 15.7917 13.3118 15.7917 13.2653C15.7452 13.2793 15.6987 13.2934 15.6523 13.307V13.4465C15.6987 13.4327 15.7452 13.4187 15.7917 13.4047Z" fill="white"/>
<path d="M14.3973 13.1146C13.7934 13.2855 13.1894 13.4463 12.5854 13.5909V13.7311C13.1894 13.5866 13.7934 13.4256 14.3973 13.2547C14.3973 13.2083 14.3973 13.1614 14.3973 13.1146Z" fill="white"/>
<path d="M13.98 13.9289C14.119 13.8904 14.2583 13.8518 14.3972 13.8124C14.3972 13.7659 14.3972 13.7194 14.3972 13.6729C14.3043 13.6992 14.2114 13.7251 14.1184 13.7509C14.1184 13.7044 14.1184 13.6581 14.1184 13.6116C14.2582 13.573 14.3977 13.5336 14.5375 13.4937V13.7725C14.7698 13.7063 15.0021 13.6388 15.2343 13.5704C15.2343 13.3381 15.2343 13.1054 15.2343 12.8727C15.1878 12.8864 15.1413 12.9003 15.0949 12.914V13.4723C15.048 13.4859 15.0016 13.4995 14.9547 13.513C14.9547 13.3267 14.9547 13.1409 14.9547 12.9546C14.9087 12.9683 14.8622 12.9814 14.8162 12.995V13.5534C14.7694 13.567 14.7229 13.5801 14.676 13.5937C14.676 13.4074 14.676 13.2216 14.676 13.0353C14.63 13.0485 14.5836 13.0616 14.5376 13.0748V13.3543C14.3517 13.4074 14.1659 13.4595 13.9801 13.5108C13.98 13.6501 13.98 13.7895 13.98 13.9289Z" fill="white"/>
<path d="M12.7248 13.9762C12.8642 13.9424 13.0036 13.9073 13.1429 13.8719V14.1506C13.3752 14.0915 13.6074 14.03 13.8397 13.9669C13.8397 13.8276 13.8397 13.6882 13.8397 13.5488C13.7008 13.5864 13.5614 13.6237 13.4225 13.6602V13.7995C13.515 13.7754 13.6079 13.7508 13.7004 13.7259V13.8653C13.5609 13.9025 13.4216 13.9394 13.2823 13.9757C13.2823 13.8828 13.2823 13.7899 13.2823 13.6969C13.05 13.7571 12.8176 13.8148 12.5854 13.8706V14.2887C12.6319 14.2773 12.6784 14.2664 12.7248 14.255C12.7248 14.162 12.7248 14.069 12.7248 13.9762Z" fill="white"/>
<path d="M13.0035 14.1861C13.0035 14.1397 13.0035 14.0932 13.0035 14.0467C12.9567 14.0582 12.9102 14.0699 12.8633 14.0813V14.2208C12.9102 14.2094 12.9567 14.198 13.0035 14.1861Z" fill="white"/>
<path d="M11.6086 13.8079C11.0047 13.932 10.4007 14.035 9.79688 14.1094V14.2496C10.4007 14.1751 11.0048 14.0721 11.6086 13.948C11.6086 13.9017 11.6086 13.8549 11.6086 13.8079Z" fill="white"/>
<path d="M11.1909 14.5881C11.3303 14.5619 11.4696 14.5346 11.6091 14.5058C11.6091 14.4593 11.6091 14.4128 11.6091 14.3663C11.5165 14.3856 11.4237 14.404 11.3312 14.4221C11.3312 14.3756 11.3312 14.3291 11.3312 14.2826C11.47 14.2555 11.6095 14.2274 11.7484 14.198V14.4768C11.9811 14.4281 12.2135 14.376 12.4462 14.3216C12.4462 14.0889 12.4462 13.8561 12.4462 13.6239C12.3993 13.6349 12.3528 13.6458 12.306 13.6563V14.2147C12.2595 14.2256 12.213 14.2361 12.1665 14.2467C12.1665 14.0605 12.1665 13.8742 12.1665 13.6884C12.1205 13.6984 12.0741 13.7089 12.0281 13.719V14.2774C11.9816 14.2874 11.9351 14.2975 11.8887 14.3076C11.8887 14.1218 11.8887 13.9355 11.8887 13.7493C11.8418 13.7593 11.7954 13.7695 11.7485 13.7791V14.0588C11.5627 14.0982 11.3769 14.135 11.191 14.1701C11.1909 14.3093 11.1909 14.4487 11.1909 14.5881Z" fill="white"/>
<path d="M9.93543 14.5109C10.0752 14.4924 10.2146 14.4728 10.3545 14.4517V14.7305C10.5868 14.6955 10.8191 14.6565 11.0513 14.614C11.0513 14.4745 11.0513 14.3352 11.0513 14.1959C10.9118 14.2213 10.7725 14.2454 10.6331 14.2686V14.4081C10.7261 14.3926 10.819 14.3769 10.9118 14.3602V14.4996C10.772 14.5246 10.6327 14.5478 10.4928 14.5697C10.4928 14.4768 10.4928 14.3839 10.4928 14.291C10.2609 14.3278 10.0286 14.3602 9.79688 14.3891V14.8072C9.8428 14.8015 9.88928 14.7953 9.93532 14.7897C9.93543 14.6967 9.93543 14.6038 9.93543 14.5109Z" fill="white"/>
<path d="M10.214 14.7511C10.214 14.7046 10.214 14.6581 10.214 14.6118C10.1676 14.6183 10.1211 14.6249 10.0747 14.6314V14.7709C10.1211 14.7642 10.1676 14.7581 10.214 14.7511Z" fill="white"/>
<path d="M8.82058 14.2037C8.21617 14.2454 7.61233 14.2545 7.00781 14.2239V14.3641C7.61222 14.3949 8.21617 14.3856 8.82058 14.344C8.82058 14.2974 8.82058 14.2506 8.82058 14.2037Z" fill="white"/>
<path d="M8.40246 14.9251C8.5418 14.9189 8.68125 14.9111 8.82059 14.9014C8.82059 14.8549 8.82059 14.8085 8.82059 14.7621C8.72762 14.7687 8.63476 14.7744 8.5418 14.7792C8.5418 14.7327 8.5418 14.6862 8.5418 14.6397C8.68125 14.6322 8.82059 14.6231 8.95993 14.6126V14.8913C9.19224 14.8734 9.42455 14.8506 9.65674 14.8239C9.65674 14.5911 9.65674 14.3588 9.65674 14.126C9.61026 14.1313 9.56389 14.1365 9.5174 14.1419V14.7003C9.47092 14.7051 9.42443 14.7099 9.37806 14.7147C9.37806 14.5284 9.37806 14.3426 9.37806 14.1563C9.33202 14.1611 9.28554 14.1656 9.2395 14.17V14.7283C9.19268 14.7327 9.1462 14.7366 9.09927 14.7405C9.09927 14.5542 9.09927 14.3684 9.09927 14.1821C9.05279 14.186 9.0063 14.19 8.95982 14.1935V14.4731C8.77399 14.4876 8.58817 14.4989 8.40234 14.5068C8.40246 14.6464 8.40246 14.7858 8.40246 14.9251Z" fill="white"/>
<path d="M7.14715 14.6494C7.28649 14.6551 7.42595 14.6586 7.56529 14.6599V14.9387C7.79804 14.9418 8.03035 14.9387 8.26299 14.9304C8.26299 14.791 8.26299 14.6516 8.26299 14.5123C8.12365 14.5171 7.9842 14.5201 7.84486 14.5215V14.6608C7.93738 14.6599 8.03024 14.6586 8.12276 14.656V14.7955C7.98375 14.7989 7.84441 14.8007 7.70552 14.8007C7.70552 14.7077 7.70552 14.6149 7.70552 14.5219C7.47276 14.5215 7.24057 14.5153 7.00781 14.5035V14.9216C7.0543 14.9238 7.10078 14.926 7.14726 14.9282C7.14715 14.8352 7.14715 14.7423 7.14715 14.6494Z" fill="white"/>
<path d="M7.42607 14.9365C7.42607 14.89 7.42607 14.8435 7.42607 14.7972C7.37959 14.7963 7.33311 14.7949 7.28662 14.7936V14.933C7.33311 14.9343 7.37959 14.9356 7.42607 14.9365Z" fill="white"/>
<path d="M6.03152 14.1384C5.42711 14.0621 4.82315 13.9421 4.21875 13.7707V13.9109C4.82315 14.0823 5.42711 14.2023 6.03152 14.2787C6.03152 14.2317 6.03152 14.1848 6.03152 14.1384Z" fill="white"/>
<path d="M5.61339 14.776C5.75273 14.7984 5.89207 14.8185 6.03153 14.8361C6.03153 14.7897 6.03153 14.7432 6.03153 14.6967C5.93856 14.6848 5.8457 14.6722 5.75273 14.6581C5.75273 14.6117 5.75273 14.5653 5.75273 14.5188C5.89207 14.5398 6.03153 14.5578 6.17087 14.574V14.8528C6.40317 14.8795 6.63537 14.8996 6.86768 14.9137C6.86768 14.6809 6.86768 14.4486 6.86768 14.2159C6.8212 14.2133 6.77471 14.2102 6.72823 14.2066V14.765C6.68174 14.7615 6.63526 14.7579 6.58889 14.7545C6.58889 14.5682 6.58889 14.3819 6.58889 14.1961C6.54285 14.1922 6.49637 14.1882 6.45033 14.1838V14.7422C6.40351 14.7377 6.35703 14.7333 6.31009 14.7282C6.31009 14.5424 6.31009 14.3561 6.31009 14.1698C6.26361 14.165 6.21713 14.1602 6.17075 14.155V14.4345C5.98493 14.4131 5.79911 14.3876 5.61328 14.3578C5.61339 14.4973 5.61339 14.6367 5.61339 14.776Z" fill="white"/>
<path d="M4.3591 14.2286C4.49799 14.2663 4.63744 14.3014 4.77634 14.3334V14.6122C5.00909 14.6665 5.2414 14.713 5.47404 14.7534C5.47404 14.6139 5.47404 14.4746 5.47404 14.3352C5.33426 14.3111 5.1948 14.2848 5.05502 14.2554V14.3949C5.14798 14.4141 5.24084 14.4326 5.33381 14.4497V14.589C5.1948 14.5632 5.05546 14.5355 4.91657 14.5049C4.91657 14.4119 4.91657 14.319 4.91657 14.2261C4.68381 14.1748 4.45151 14.1166 4.21875 14.0503V14.4684C4.26568 14.4816 4.31205 14.4947 4.35898 14.5074C4.3591 14.4145 4.3591 14.3216 4.3591 14.2286Z" fill="white"/>
<path d="M4.63779 14.5792C4.63779 14.5327 4.63779 14.4864 4.63779 14.4399C4.59086 14.4285 4.54449 14.4166 4.49756 14.4044V14.5438C4.54449 14.556 4.59086 14.5678 4.63779 14.5792Z" fill="white"/>
<path d="M3.24205 13.4476C2.63809 13.2188 2.03413 12.9344 1.43018 12.5868V12.727C2.03413 13.0745 2.63809 13.359 3.24205 13.5878C3.24205 13.5409 3.24205 13.4945 3.24205 13.4476Z" fill="white"/>
<path d="M2.82471 13.9785C2.9636 14.0371 3.10305 14.0928 3.24195 14.1454C3.24195 14.0989 3.24195 14.0524 3.24195 14.0061C3.14898 13.971 3.05612 13.9341 2.96315 13.8964C2.96315 13.85 2.96315 13.8035 2.96315 13.7571C3.10294 13.8141 3.24239 13.8679 3.38218 13.9188V14.1976C3.61494 14.2826 3.84724 14.3593 4.07989 14.4281C4.07989 14.1958 4.07989 13.963 4.07989 13.7304C4.03307 13.7168 3.98658 13.7023 3.93965 13.6879V14.2463C3.89317 14.2318 3.8468 14.2174 3.80031 14.2024C3.80031 14.0161 3.80031 13.8298 3.80031 13.644C3.75383 13.6287 3.70735 13.6134 3.66097 13.5975V14.1559C3.61494 14.1406 3.56845 14.1247 3.52241 14.1085C3.52241 13.9222 3.52241 13.736 3.52241 13.5502C3.4756 13.5335 3.42911 13.5169 3.38218 13.4998V13.7793C3.19636 13.7115 3.01053 13.6386 2.82471 13.5602V13.9785Z" fill="white"/>
<path d="M1.56963 13.0852C1.70897 13.1627 1.84842 13.2377 1.98776 13.3091V13.5879C2.22007 13.7067 2.45238 13.8166 2.68457 13.918C2.68457 13.7785 2.68457 13.6392 2.68457 13.4999C2.54523 13.4393 2.40589 13.3754 2.26644 13.3083V13.4478C2.35941 13.4925 2.45227 13.5354 2.54523 13.5775V13.7169C2.40589 13.6542 2.26644 13.588 2.1271 13.5187C2.1271 13.4258 2.1271 13.3329 2.1271 13.24C1.89479 13.1247 1.66248 13.0002 1.43018 12.8665V13.2846C1.47666 13.3114 1.52314 13.3377 1.56963 13.364C1.56963 13.271 1.56963 13.1782 1.56963 13.0852Z" fill="white"/>
<path d="M1.84824 13.5152C1.84824 13.4687 1.84824 13.4222 1.84824 13.3757C1.80131 13.3511 1.75494 13.3262 1.70801 13.3008V13.4402C1.75483 13.4657 1.80131 13.4906 1.84824 13.5152Z" fill="white"/>
<path d="M31.1278 19.7075C30.5239 19.4165 29.9198 19.1842 29.3159 19.0045V19.143C29.9198 19.3235 30.5239 19.5551 31.1278 19.8459C31.1278 19.8004 31.1278 19.7531 31.1278 19.7075Z" fill="white"/>
<path d="M31.8248 20.6279C31.7784 20.6016 31.7319 20.5753 31.6855 20.5508C31.6855 20.365 31.6855 20.1792 31.6855 19.9933C31.6391 19.9678 31.5926 19.9425 31.5462 19.9179V20.4754C31.4997 20.4508 31.4533 20.4271 31.4068 20.4034C31.4068 20.2176 31.4068 20.0318 31.4068 19.8459C31.3603 19.8215 31.3138 19.7987 31.2675 19.7759V20.0546C31.0816 19.9617 30.8959 19.875 30.71 19.7933V20.2123C30.8494 20.2728 30.9886 20.3368 31.1281 20.4034C31.1281 20.3579 31.1281 20.3106 31.1281 20.265C31.0351 20.2194 30.9422 20.1765 30.8494 20.1343C30.8494 20.088 30.8494 20.0424 30.8494 19.9959C30.9886 20.0589 31.1281 20.1247 31.2675 20.1949V20.4719C31.5006 20.5876 31.7319 20.712 31.9651 20.847C31.9651 20.6138 31.9651 20.3824 31.9651 20.1493C31.9178 20.1231 31.8722 20.0967 31.8248 20.0704V20.6279Z" fill="white"/>
<path d="M30.1523 19.7057C30.245 19.7407 30.338 19.7777 30.431 19.8161V19.9545C30.2906 19.8967 30.1523 19.8432 30.0119 19.7924C30.0119 19.6995 30.0119 19.6067 30.0119 19.5137C29.7806 19.4287 29.5474 19.3516 29.3159 19.2832V19.7004C29.3615 19.7145 29.4089 19.7285 29.4545 19.7435C29.4545 19.6505 29.4545 19.5585 29.4545 19.4656C29.5938 19.5095 29.7332 19.5551 29.8724 19.604V19.8819C30.1048 19.9634 30.3379 20.0528 30.5701 20.1519C30.5701 20.0125 30.5701 19.8732 30.5701 19.7337C30.4309 19.6742 30.2914 19.619 30.1522 19.5655C30.1523 19.6128 30.1523 19.6593 30.1523 19.7057Z" fill="white"/>
<path d="M29.5947 19.7881C29.6403 19.8022 29.6876 19.818 29.7332 19.8337C29.7332 19.7872 29.7332 19.7407 29.7332 19.6944C29.6876 19.6785 29.6403 19.6638 29.5947 19.6479V19.7881Z" fill="white"/>
<path d="M28.3396 18.7573C27.7348 18.632 27.1317 18.554 26.5269 18.5172V18.6557C27.1317 18.6933 27.7348 18.7713 28.3396 18.8976C28.3396 18.8502 28.3396 18.8047 28.3396 18.7573Z" fill="white"/>
<path d="M29.0363 19.4822C28.9898 19.469 28.9434 19.4567 28.897 19.4454C28.897 19.2595 28.897 19.0738 28.897 18.888C28.8505 18.8757 28.804 18.8643 28.7577 18.8529V19.4103C28.7112 19.399 28.6647 19.3876 28.6182 19.3762C28.6182 19.1903 28.6182 19.0045 28.6182 18.8187C28.5718 18.8082 28.5253 18.7977 28.4789 18.7872V19.0659C28.293 19.0256 28.1072 18.9888 27.9214 18.9571V19.3744C28.0608 19.399 28.2002 19.4252 28.3395 19.455C28.3395 19.4077 28.3395 19.3621 28.3395 19.3147C28.2466 19.2955 28.1537 19.2779 28.0608 19.2604C28.0608 19.2149 28.0608 19.1684 28.0608 19.1219C28.2002 19.1482 28.3395 19.1763 28.4789 19.2061V19.4849C28.7112 19.5357 28.9434 19.5944 29.1757 19.6602C29.1757 19.4279 29.1757 19.1956 29.1757 18.9633C29.1293 18.9502 29.0828 18.9378 29.0363 18.9247V19.4822Z" fill="white"/>
<path d="M27.363 19.0132C27.456 19.0255 27.5488 19.0378 27.6418 19.0519V19.1903C27.5034 19.1701 27.363 19.1517 27.2246 19.136C27.2246 19.0431 27.2246 18.9502 27.2246 18.8572C26.9914 18.8301 26.7601 18.81 26.5269 18.7959V19.2131C26.5742 19.2166 26.6198 19.2202 26.6671 19.2227C26.6671 19.1308 26.6671 19.0378 26.6671 18.945C26.8055 18.9555 26.9459 18.9678 27.0843 18.9817V19.2595C27.3175 19.2832 27.5488 19.3147 27.782 19.3516C27.782 19.2131 27.782 19.0729 27.782 18.9343C27.6418 18.9117 27.5034 18.8914 27.363 18.873V19.0132Z" fill="white"/>
<path d="M26.8057 19.2343C26.853 19.2377 26.8986 19.2413 26.946 19.2465C26.946 19.1991 26.946 19.1535 26.946 19.1062C26.8986 19.1028 26.853 19.0983 26.8057 19.0939V19.2343Z" fill="white"/>
<path d="M25.5511 18.4908C24.9472 18.4943 24.3431 18.5354 23.7393 18.6048V18.7451C24.3431 18.675 24.9472 18.6347 25.5511 18.6294C25.5511 18.5837 25.5511 18.5363 25.5511 18.4908Z" fill="white"/>
<path d="M26.2482 19.0597C26.2018 19.0579 26.1553 19.0562 26.1088 19.0553C26.1088 18.8695 26.1088 18.6837 26.1088 18.4979C26.0624 18.4961 26.0159 18.4944 25.9695 18.4935V19.051C25.923 19.0501 25.8766 19.0492 25.8301 19.0484C25.8301 18.8626 25.8301 18.6768 25.8301 18.4909C25.7836 18.4909 25.7371 18.4909 25.6908 18.4901V18.7687C25.5049 18.7678 25.3191 18.7713 25.1333 18.7783V19.1956C25.2726 19.1912 25.412 19.1885 25.5514 19.1869C25.5514 19.1413 25.5514 19.0939 25.5514 19.0484C25.4585 19.0484 25.3655 19.0502 25.2726 19.0519C25.2726 19.0063 25.2726 18.9607 25.2726 18.9134C25.412 18.9099 25.5514 18.909 25.6908 18.909V19.1869C25.9239 19.1878 26.1553 19.1939 26.3885 19.2061C26.3885 18.973 26.3885 18.7416 26.3885 18.5084C26.3411 18.5066 26.2955 18.5049 26.2482 18.5022V19.0597Z" fill="white"/>
<path d="M24.5755 18.9466C24.6684 18.9404 24.7613 18.9343 24.8542 18.93V19.0684C24.714 19.0763 24.5755 19.0851 24.4353 19.0956C24.4353 19.0027 24.4353 18.9097 24.4353 18.8169C24.2039 18.8344 23.9707 18.8571 23.7393 18.8835V19.3025C23.7847 19.2972 23.8321 19.292 23.8777 19.2867C23.8777 19.1938 23.8777 19.1008 23.8777 19.008C24.0179 18.9939 24.1564 18.9799 24.2966 18.9677V19.2464C24.5289 19.2262 24.7612 19.2114 24.9935 19.2008C24.9935 19.0624 24.9935 18.9221 24.9935 18.7837C24.8541 18.7889 24.7148 18.7977 24.5754 18.8065C24.5755 18.8536 24.5755 18.9001 24.5755 18.9466Z" fill="white"/>
<path d="M24.0181 19.2719C24.0637 19.2676 24.111 19.2623 24.1565 19.2587C24.1565 19.2124 24.1565 19.1659 24.1565 19.1194C24.111 19.1237 24.0637 19.1273 24.0181 19.1326V19.2719Z" fill="white"/>
<path d="M22.763 18.7415C22.1581 18.8415 21.555 18.965 20.9502 19.1062V19.2455C21.555 19.1044 22.1581 18.9799 22.763 18.8817C22.763 18.8344 22.763 18.7888 22.763 18.7415Z" fill="white"/>
<path d="M23.4596 19.1974C23.4131 19.2026 23.3667 19.2097 23.3202 19.2158C23.3202 19.03 23.3202 18.8442 23.3202 18.6583C23.2738 18.6645 23.2273 18.6714 23.1809 18.6777V19.2352C23.1344 19.2413 23.0879 19.2482 23.0416 19.2553C23.0416 19.0694 23.0416 18.8836 23.0416 18.6979C22.9951 18.7049 22.9486 18.7119 22.9021 18.7197V18.9985C22.7154 19.0274 22.5296 19.0589 22.3438 19.0939V19.5111C22.4841 19.4857 22.6225 19.4621 22.7628 19.4392C22.7628 19.3919 22.7628 19.3463 22.7628 19.299C22.6699 19.3147 22.577 19.3305 22.4841 19.3463C22.4841 19.3007 22.4841 19.2543 22.4841 19.2078C22.6234 19.1833 22.7628 19.1605 22.9021 19.1386V19.4164C23.1344 19.3796 23.3667 19.3472 23.5989 19.3183C23.5989 19.0869 23.5989 18.8537 23.5989 18.6223C23.5526 18.6275 23.5061 18.6328 23.4596 18.6397V19.1974Z" fill="white"/>
<path d="M21.7863 19.3412C21.8793 19.3218 21.9723 19.3043 22.0651 19.286V19.4244C21.9267 19.4516 21.7863 19.4796 21.6479 19.5086C21.6479 19.4156 21.6479 19.3227 21.6479 19.2298C21.4148 19.2788 21.1834 19.3306 20.9502 19.385V19.8031C20.9976 19.7916 21.0432 19.7812 21.0904 19.7707C21.0904 19.6777 21.0904 19.5858 21.0904 19.4928C21.229 19.4604 21.3692 19.4306 21.5077 19.3999V19.6777C21.7409 19.6278 21.9723 19.5813 22.2054 19.5375C22.2054 19.3973 22.2054 19.2587 22.2054 19.1185C22.0651 19.1447 21.9267 19.1728 21.7863 19.2008V19.3412Z" fill="white"/>
<path d="M21.229 19.739C21.2763 19.7285 21.3219 19.718 21.3692 19.7075C21.3692 19.662 21.3692 19.6146 21.3692 19.569C21.3219 19.5795 21.2763 19.5893 21.229 19.5996V19.739Z" fill="white"/>
<path d="M19.9745 19.349C19.3705 19.5077 18.7664 19.6794 18.1626 19.8565V19.9959C18.7664 19.8179 19.3705 19.6461 19.9745 19.4883C19.9745 19.4419 19.9745 19.3955 19.9745 19.349Z" fill="white"/>
<path d="M20.6716 19.7303C20.6251 19.7417 20.5786 19.7531 20.5322 19.7645C20.5322 19.5787 20.5322 19.393 20.5322 19.207C20.4858 19.2185 20.4393 19.2307 20.3928 19.2413V19.7988C20.3464 19.811 20.2999 19.8234 20.2535 19.8347C20.2535 19.6488 20.2535 19.463 20.2535 19.2772C20.207 19.2887 20.1606 19.3009 20.1141 19.3131V19.5919C19.9283 19.6392 19.7425 19.6882 19.5566 19.739V20.158C19.696 20.1195 19.8353 20.0826 19.9748 20.0459C19.9748 19.9994 19.9748 19.9529 19.9748 19.9065C19.8818 19.9302 19.789 19.9555 19.696 19.981C19.696 19.9337 19.696 19.8881 19.696 19.8425C19.8353 19.8039 19.9748 19.7672 20.1141 19.7321V20.0091C20.3473 19.9495 20.5786 19.8917 20.8118 19.8356C20.8118 19.6041 20.8118 19.3711 20.8118 19.1395C20.7644 19.15 20.7189 19.1614 20.6716 19.1728V19.7303Z" fill="white"/>
<path d="M18.9989 20.0336C19.0918 20.0073 19.1847 19.9819 19.2775 19.9565V20.095C19.1373 20.1335 18.9989 20.1721 18.8586 20.2124C18.8586 20.1196 18.8586 20.0266 18.8586 19.9338C18.6272 20.0003 18.3941 20.0669 18.1626 20.1353V20.5535C18.2081 20.5403 18.2555 20.5263 18.301 20.5122C18.301 20.4203 18.301 20.3282 18.301 20.2352C18.4413 20.1941 18.5797 20.1538 18.7201 20.1133V20.3912C18.9514 20.3245 19.1846 20.2597 19.4161 20.1958C19.4161 20.0563 19.4161 19.917 19.4161 19.7776C19.2775 19.8162 19.1373 19.8548 18.9989 19.8933V20.0336Z" fill="white"/>
<path d="M18.4414 20.4719C18.487 20.4578 18.5344 20.4457 18.5799 20.4316C18.5799 20.3852 18.5799 20.3387 18.5799 20.2922C18.5344 20.3054 18.487 20.3194 18.4414 20.3326V20.4719Z" fill="white"/>
<path d="M17.1862 20.1475C16.5818 20.3299 15.9779 20.5139 15.3735 20.6927V20.8329C15.9779 20.6542 16.5818 20.4701 17.1862 20.2878C17.1862 20.2404 17.1862 20.1949 17.1862 20.1475Z" fill="white"/>
<path d="M17.8829 20.4965C17.8366 20.5105 17.7901 20.5245 17.7436 20.5385C17.7436 20.3527 17.7436 20.1668 17.7436 19.9811C17.6971 19.9951 17.6507 20.0091 17.6042 20.0232V20.5806C17.5578 20.5937 17.5113 20.6078 17.4649 20.6219C17.4649 20.4359 17.4649 20.2502 17.4649 20.0644C17.4184 20.0784 17.3719 20.0924 17.3256 20.1064V20.3852C17.1387 20.4404 16.953 20.4974 16.7671 20.5535V20.9716C16.9074 20.9295 17.0459 20.8875 17.1861 20.8453C17.1861 20.798 17.1861 20.7524 17.1861 20.7051C17.0933 20.7331 17.0003 20.7612 16.9074 20.7892C16.9074 20.7437 16.9074 20.6981 16.9074 20.6508C17.0468 20.6087 17.1861 20.5665 17.3256 20.5254V20.8032C17.5578 20.7332 17.7901 20.663 18.0224 20.5946C18.0224 20.3633 18.0224 20.1301 18.0224 19.8986C17.9759 19.9117 17.9294 19.9248 17.8829 19.9389V20.4965Z" fill="white"/>
<path d="M16.2097 20.8627C16.3027 20.8348 16.3955 20.8066 16.4885 20.7786V20.917C16.3496 20.9583 16.2102 21.0004 16.0712 21.0424C16.0712 20.9496 16.0712 20.8566 16.0712 20.7637C15.8385 20.8339 15.6062 20.9031 15.3735 20.9715V21.3904C15.4204 21.3764 15.4668 21.3623 15.5138 21.3484C15.5138 21.2554 15.5138 21.1634 15.5138 21.0714C15.6528 21.0293 15.7921 20.9872 15.931 20.9461V21.2239C16.1638 21.1537 16.3961 21.0836 16.6288 21.0135C16.6288 20.8741 16.6288 20.7348 16.6288 20.5953C16.489 20.6375 16.3496 20.6805 16.2098 20.7225C16.2097 20.7681 16.2097 20.8155 16.2097 20.8627Z" fill="white"/>
<path d="M15.6523 21.3071C15.6992 21.2941 15.7456 21.28 15.7926 21.266C15.7926 21.2186 15.7926 21.173 15.7926 21.1257C15.7456 21.1398 15.6993 21.1537 15.6523 21.1678V21.3071Z" fill="white"/>
<path d="M14.3978 20.9767C13.7939 21.1467 13.1899 21.3081 12.5859 21.4519V21.5921C13.1899 21.4474 13.7939 21.2862 14.3978 21.1152C14.3978 21.0696 14.3978 21.0223 14.3978 20.9767Z" fill="white"/>
<path d="M15.095 21.3327C15.0486 21.3467 15.0021 21.3607 14.9557 21.373C14.9557 21.1872 14.9557 21.0013 14.9557 20.8155C14.9092 20.8295 14.8627 20.8436 14.8162 20.8566V21.4141C14.7698 21.4273 14.7233 21.4413 14.6768 21.4537C14.6768 21.2678 14.6768 21.082 14.6768 20.8962C14.6303 20.9102 14.5839 20.9233 14.5375 20.9364V21.2152C14.3516 21.2678 14.1658 21.3204 13.98 21.3712V21.7901C14.1194 21.7516 14.2588 21.7121 14.3981 21.6727C14.3981 21.6271 14.3981 21.5797 14.3981 21.5342C14.3051 21.5605 14.2123 21.586 14.1193 21.6112C14.1193 21.5657 14.1193 21.5193 14.1193 21.4728C14.2587 21.4342 14.3981 21.3957 14.5375 21.3553V21.6331C14.7698 21.5674 15.0021 21.499 15.2343 21.4306C15.2343 21.1992 15.2343 20.966 15.2343 20.7346C15.1878 20.7477 15.1413 20.7618 15.0949 20.7748C15.095 20.961 15.095 21.1468 15.095 21.3327Z" fill="white"/>
<path d="M13.4222 21.6612C13.5152 21.6377 13.608 21.6123 13.701 21.5868V21.7253C13.5612 21.7638 13.4218 21.8007 13.282 21.8366C13.282 21.7437 13.282 21.6507 13.282 21.5578C13.0501 21.6174 12.8178 21.6762 12.5859 21.7305V22.1496C12.632 22.138 12.6785 22.1268 12.7244 22.1163C12.7244 22.0233 12.7244 21.9303 12.7244 21.8375C12.8642 21.8042 13.0036 21.7691 13.1434 21.734V22.011C13.3753 21.9522 13.6075 21.8909 13.8394 21.8277C13.8394 21.6884 13.8394 21.5489 13.8394 21.4096C13.7005 21.4473 13.5611 21.485 13.4222 21.5209V21.6612Z" fill="white"/>
<path d="M12.8647 22.0812C12.9108 22.0698 12.9573 22.0584 13.0032 22.047C13.0032 22.0005 13.0032 21.954 13.0032 21.9077C12.9572 21.9191 12.9107 21.9303 12.8647 21.9418V22.0812Z" fill="white"/>
<path d="M11.6095 21.6693C11.0051 21.7937 10.4012 21.8972 9.79688 21.9708V22.111C10.4012 22.0356 11.0051 21.9331 11.6095 21.8095C11.6095 21.7622 11.6095 21.7165 11.6095 21.6693Z" fill="white"/>
<path d="M12.3064 22.0759C12.2599 22.0864 12.2134 22.0969 12.1669 22.1074C12.1669 21.9216 12.1669 21.7358 12.1669 21.55C12.1204 21.5606 12.0741 21.571 12.0276 21.5806V22.1381C11.9811 22.1478 11.9346 22.1583 11.8882 22.1687C11.8882 21.9828 11.8882 21.7971 11.8882 21.6112C11.8418 21.6209 11.7953 21.6305 11.7488 21.6411V21.9198C11.5625 21.9585 11.3767 21.9953 11.1904 22.0302V22.4493C11.3302 22.423 11.4696 22.3949 11.6095 22.3669C11.6095 22.3195 11.6095 22.2739 11.6095 22.2267C11.5165 22.2459 11.4236 22.2652 11.3307 22.2828C11.3307 22.2372 11.3307 22.1898 11.3307 22.1442C11.47 22.1172 11.6095 22.089 11.7488 22.0601V22.3371C11.9811 22.288 12.2134 22.2371 12.4457 22.1828C12.4457 21.9496 12.4457 21.7181 12.4457 21.485C12.3992 21.4964 12.3528 21.5069 12.3063 21.5183C12.3064 21.7043 12.3064 21.8901 12.3064 22.0759Z" fill="white"/>
<path d="M10.6331 22.2697C10.7261 22.2548 10.819 22.2391 10.9118 22.2214V22.36C10.7729 22.3845 10.6336 22.4081 10.4946 22.43C10.4946 22.3372 10.4946 22.2442 10.4946 22.1513C10.2618 22.1881 10.0295 22.2214 9.79688 22.2495V22.6685C9.84369 22.6623 9.89018 22.6563 9.93711 22.6502C9.93711 22.5581 9.93711 22.4651 9.93711 22.3723C10.076 22.3547 10.2153 22.3346 10.3543 22.3136V22.5914C10.5871 22.5564 10.8194 22.5177 11.0521 22.4748C11.0521 22.3355 11.0521 22.196 11.0521 22.0567C10.9123 22.0822 10.7728 22.1058 10.633 22.1294C10.6331 22.1759 10.6331 22.2233 10.6331 22.2697Z" fill="white"/>
<path d="M10.0757 22.6317C10.1226 22.6247 10.169 22.6185 10.2159 22.6124C10.2159 22.565 10.2159 22.5194 10.2159 22.4722C10.1691 22.4792 10.1226 22.4861 10.0757 22.4924V22.6317Z" fill="white"/>
<path d="M8.82155 22.0654C8.21715 22.1074 7.61331 22.1163 7.00879 22.0855V22.225C7.61319 22.2556 8.21715 22.246 8.82155 22.2048C8.82155 22.1584 8.82155 22.1119 8.82155 22.0654Z" fill="white"/>
<path d="M9.51838 22.5607C9.47189 22.5659 9.42541 22.5703 9.37904 22.5756C9.37904 22.3898 9.37904 22.204 9.37904 22.0182C9.33255 22.0225 9.28607 22.0269 9.23959 22.0321V22.5896C9.1931 22.5931 9.14662 22.5976 9.10025 22.6019C9.10025 22.4161 9.10025 22.2303 9.10025 22.0444C9.05376 22.0479 9.00728 22.0515 8.96079 22.0549V22.3337C8.77497 22.3486 8.58914 22.36 8.40332 22.3679V22.7859C8.54266 22.7798 8.68211 22.772 8.82145 22.7624C8.82145 22.7159 8.82145 22.6694 8.82145 22.6229C8.72848 22.63 8.63563 22.6352 8.54266 22.6405C8.54266 22.5931 8.54266 22.5476 8.54266 22.502C8.68211 22.4942 8.82145 22.4845 8.96079 22.474V22.7526C9.1931 22.7343 9.42541 22.7115 9.65772 22.6844C9.65772 22.453 9.65772 22.2198 9.65772 21.9883C9.61123 21.9936 9.56475 21.9988 9.51827 22.0032C9.51838 22.189 9.51838 22.3749 9.51838 22.5607Z" fill="white"/>
<path d="M7.84584 22.523C7.9388 22.5212 8.03166 22.5194 8.12463 22.5176V22.6562C7.98484 22.6596 7.84539 22.6614 7.7056 22.6614C7.7056 22.5685 7.7056 22.4756 7.7056 22.3828C7.47329 22.3828 7.2411 22.3757 7.00879 22.3643V22.7823C7.05527 22.7849 7.10176 22.7868 7.14824 22.7894C7.14824 22.6964 7.14824 22.6036 7.14824 22.5106C7.28803 22.5167 7.42748 22.5203 7.56727 22.5212V22.7999C7.79913 22.8017 8.03144 22.7999 8.2633 22.7912C8.2633 22.6518 8.2633 22.5124 8.2633 22.373C8.12441 22.3774 7.98495 22.3809 7.84606 22.3828C7.84584 22.4283 7.84584 22.4756 7.84584 22.523Z" fill="white"/>
<path d="M7.28809 22.7939C7.33412 22.7948 7.38061 22.7965 7.42664 22.7973C7.42664 22.7509 7.42664 22.7045 7.42664 22.658C7.38061 22.6571 7.33412 22.6562 7.28809 22.6545V22.7939Z" fill="white"/>
<path d="M6.03287 22.0005C5.42846 21.9242 4.82462 21.8042 4.22021 21.6323V21.7727C4.82462 21.9435 5.42846 22.0636 6.03287 22.139C6.03287 22.0935 6.03287 22.0462 6.03287 22.0005Z" fill="white"/>
<path d="M6.72972 22.6265C6.68324 22.6229 6.63675 22.6194 6.59027 22.6158C6.59027 22.43 6.59027 22.2442 6.59027 22.0584C6.54379 22.054 6.4973 22.0497 6.45082 22.0462V22.6037C6.40433 22.5984 6.35796 22.5948 6.31148 22.5896C6.31148 22.4038 6.31148 22.2179 6.31148 22.0321C6.26499 22.0269 6.21851 22.0216 6.17214 22.0164V22.295C5.98587 22.274 5.80004 22.2494 5.61377 22.2196V22.6369C5.75356 22.6596 5.89301 22.6789 6.0328 22.6964C6.0328 22.6509 6.0328 22.6036 6.0328 22.558C5.93983 22.5458 5.84697 22.5334 5.754 22.5193C5.754 22.4738 5.754 22.4264 5.754 22.3809C5.89346 22.4019 6.0328 22.4195 6.17214 22.4352V22.714C6.40445 22.7402 6.63664 22.7604 6.86895 22.7744C6.86895 22.5421 6.86895 22.3099 6.86895 22.0776C6.82247 22.075 6.77598 22.0723 6.72961 22.0689C6.72972 22.2548 6.72972 22.4406 6.72972 22.6265Z" fill="white"/>
<path d="M5.05637 22.2565C5.14934 22.2757 5.24219 22.2951 5.33516 22.3108V22.4493C5.19616 22.4247 5.05682 22.3966 4.91792 22.366C4.91792 22.2731 4.91792 22.1802 4.91792 22.0872C4.68517 22.0355 4.45286 21.9777 4.22021 21.9111V22.3302C4.26703 22.3432 4.31352 22.3563 4.36045 22.3687C4.36045 22.2757 4.36045 22.1829 4.36045 22.0908C4.49934 22.1286 4.63879 22.1636 4.77769 22.1952V22.474C5.01044 22.5283 5.24275 22.574 5.47551 22.6142C5.47551 22.4749 5.47551 22.3355 5.47551 22.1961C5.33572 22.1725 5.19627 22.1462 5.05648 22.1164C5.05637 22.1636 5.05637 22.21 5.05637 22.2565Z" fill="white"/>
<path d="M4.49902 22.4054C4.54595 22.4177 4.59233 22.4291 4.63926 22.4405C4.63926 22.394 4.63926 22.3476 4.63926 22.3011C4.59233 22.2897 4.54595 22.2775 4.49902 22.2652V22.4054Z" fill="white"/>
<path d="M3.24478 21.3099C2.64038 21.082 2.03653 20.7971 1.43213 20.45V20.5894C2.03653 20.9364 2.64038 21.2205 3.24478 21.4501C3.24478 21.4028 3.24478 21.3572 3.24478 21.3099Z" fill="white"/>
<path d="M3.94161 22.1075C3.89512 22.0935 3.84875 22.0785 3.80227 22.0636C3.80227 21.8777 3.80227 21.692 3.80227 21.5062C3.75578 21.4912 3.7093 21.4763 3.66293 21.4606V22.0181C3.61689 22.0022 3.5704 21.9865 3.52437 21.9698C3.52437 21.784 3.52437 21.5981 3.52437 21.4123C3.47755 21.3957 3.43106 21.3799 3.38413 21.3624V21.6412C3.19831 21.5728 3.01248 21.4999 2.82666 21.422V21.8401C2.96611 21.8987 3.10545 21.9548 3.24479 22.0074C3.24479 21.9602 3.24479 21.9146 3.24479 21.8672C3.15149 21.8322 3.05852 21.7954 2.96522 21.7585C2.96522 21.7111 2.96522 21.6656 2.96522 21.62C3.10501 21.6761 3.24446 21.7304 3.38425 21.7813V22.0591C3.61655 22.1441 3.84886 22.2203 4.08106 22.2896C4.08106 22.0564 4.08106 21.825 4.08106 21.5919C4.03457 21.5787 3.98809 21.5638 3.94161 21.5498V22.1075Z" fill="white"/>
<path d="M2.26918 21.3098C2.36215 21.3554 2.455 21.3984 2.54797 21.4404V21.5789C2.40818 21.5159 2.26873 21.45 2.12894 21.38C2.12894 21.287 2.12894 21.1942 2.12894 21.1013C1.89663 20.9864 1.66433 20.8618 1.43213 20.7288V21.1468C1.47861 21.173 1.5251 21.1994 1.57147 21.2257C1.57147 21.1328 1.57147 21.0398 1.57147 20.9479C1.71126 21.0259 1.85071 21.1003 1.9905 21.1723V21.45C2.22236 21.5693 2.45467 21.678 2.68653 21.7797C2.68653 21.6403 2.68653 21.5009 2.68653 21.3615C2.54763 21.3011 2.40829 21.2371 2.26929 21.1696C2.26918 21.217 2.26918 21.2643 2.26918 21.3098Z" fill="white"/>
<path d="M1.71143 21.3028C1.75746 21.3274 1.80384 21.3527 1.84987 21.3764C1.84987 21.3308 1.84987 21.2835 1.84987 21.238C1.80384 21.2134 1.75735 21.1889 1.71143 21.1635V21.3028Z" fill="white"/>
<path d="M19.2281 15.6777C19.1325 14.9278 18.5995 14.4794 17.7669 14.465C17.7634 14.4654 17.7598 14.468 17.7572 14.4723C17.7555 14.4764 17.7564 14.4812 17.7598 14.482C17.7642 14.4851 18.2349 14.7182 18.5294 15.2626C18.8029 15.7644 18.9764 16.6361 18.2594 17.9447C18.2576 17.949 18.2576 17.9526 18.2612 17.9544C18.2621 17.9562 18.2648 17.9562 18.2666 17.9562C18.2683 17.9553 18.27 17.9544 18.2718 17.9527C18.9405 17.347 19.3253 16.4381 19.2281 15.6777Z" fill="#DE2226"/>
<path d="M16.4024 14.8225C16.4804 14.7988 16.5953 14.7405 16.6986 14.5968C16.8021 14.6779 16.9159 14.6669 16.9941 14.6436C17.1281 14.6028 17.2606 14.4911 17.3316 14.3566C17.3964 14.2338 17.4017 14.1129 17.3474 14.0146C17.3456 14.0124 17.343 14.0116 17.3403 14.0112C17.3369 14.0125 17.3333 14.0151 17.3316 14.0182C17.2299 14.2321 17.116 14.3597 16.9933 14.3965C16.8302 14.446 16.7067 14.3158 16.7058 14.3145C16.7023 14.311 16.6944 14.3132 16.6918 14.3185C16.69 14.3207 16.5655 14.5257 16.4025 14.5752C16.2797 14.6121 16.1658 14.5538 16.0642 14.4013C16.0624 14.399 16.0598 14.3982 16.0571 14.3987C16.0536 14.4 16.0501 14.4035 16.0483 14.4066C15.994 14.538 15.9992 14.6556 16.0649 14.7393C16.136 14.8308 16.2683 14.8629 16.4024 14.8225Z" fill="#DE2226"/>
<path d="M17.1443 18.5733C17.2091 18.5163 17.4835 18.2647 17.7518 17.8896C18.0349 17.4933 18.3688 16.8745 18.3557 16.1667C18.2837 14.8099 17.5493 14.5915 17.5423 14.5899C17.5389 14.5894 17.5344 14.5908 17.5317 14.5947C17.5292 14.5981 17.5283 14.6029 17.5308 14.6056C17.5343 14.6087 17.8587 14.9931 17.9437 15.6378C18.0226 16.2294 17.9103 17.1638 16.9321 18.2805C16.9602 17.6178 16.9882 16.9552 17.0163 16.2926C17.0163 15.8074 17.0163 15.3222 17.0163 14.8366C17.0163 14.8331 17.0137 14.8304 17.0092 14.8309C16.9041 14.8366 16.7068 14.6692 16.705 14.6679C16.7032 14.6656 16.7006 14.6656 16.6988 14.6661C16.6954 14.6674 16.6936 14.6686 16.6918 14.6718C16.69 14.674 16.4919 14.961 16.3867 15.0193C16.3833 15.0211 16.3797 15.0259 16.3797 15.0289V16.4849C16.4077 17.1304 16.4358 17.7756 16.4638 18.4207C15.4857 17.8947 15.3735 17.0235 15.4524 16.3862C15.5383 15.6911 15.8626 15.1138 15.8661 15.1073C15.8679 15.1034 15.8679 15.0991 15.8643 15.0977C15.8617 15.0947 15.8573 15.0959 15.8538 15.0991C15.8468 15.1061 15.1122 15.7608 15.0404 17.1584C15.0281 17.8737 15.3621 18.2962 15.6452 18.5241C15.9134 18.7398 16.1869 18.8247 16.2526 18.8432C16.1729 18.9027 15.8846 19.1008 15.2998 19.2744C15.2964 19.2744 15.2928 19.2796 15.291 19.285C15.291 19.2884 15.2928 19.292 15.2971 19.292C15.5338 19.3042 15.7766 19.2745 16.0185 19.2016C16.2728 19.1254 16.4446 19.0255 16.4779 19.0053C16.5484 19.0764 16.6195 19.1481 16.69 19.2183C16.6909 19.2201 16.6918 19.2201 16.6918 19.2201V19.2209C16.6936 19.2218 16.6952 19.2218 16.6979 19.2209C16.7006 19.2201 16.7023 19.2201 16.7041 19.2175L16.7059 19.2149C16.7765 19.1 16.8479 18.9861 16.9179 18.8722C16.9514 18.8713 17.1231 18.8678 17.3772 18.7915C17.6191 18.7188 17.8629 18.6039 18.0995 18.4505C18.1031 18.4487 18.1057 18.4435 18.1049 18.44C18.1049 18.4347 18.1004 18.4338 18.096 18.4347C17.5124 18.6083 17.2232 18.5873 17.1443 18.5733Z" fill="#DE2226"/>
<path d="M14.8669 16.3556C15.1615 15.6411 15.633 15.1267 15.6374 15.121C15.641 15.118 15.6419 15.1126 15.6401 15.1096C15.6383 15.1066 15.633 15.1066 15.6296 15.1082C14.7969 15.6201 14.2639 16.3639 14.1692 17.1672C14.0719 17.9806 14.4567 18.6801 15.1264 18.8949C15.1273 18.8958 15.129 18.8949 15.1299 18.894H15.1308C15.1352 18.8931 15.1396 18.8888 15.1396 18.8834C15.1396 18.8799 15.1387 18.8781 15.137 18.8781C14.4208 17.9869 14.5952 17.0139 14.8669 16.3556Z" fill="#DE2226"/>
</g>
<defs>
<clipPath id="clip0_167_103">
<rect width="31.674" height="31.674" fill="white" transform="translate(0.855957 0.881348)"/>
</clipPath>
</defs>
</svg>
