<svg width="33" height="33" viewBox="0 0 33 33" fill="none" xmlns="http://www.w3.org/2000/svg">
<g clip-path="url(#clip0_167_48)">
<path d="M32.1036 27.15C21.7567 20.8914 11.4093 33.4104 1.0625 27.15C1.0625 20.1955 1.0625 13.2412 1.0625 6.28669C11.4093 12.5462 21.7567 0.0272136 32.1036 6.28669V27.15Z" fill="#CCCBCA"/>
<path d="M31.8529 13.2606C21.676 7.39997 11.497 19.4136 1.31934 13.5604C1.31934 11.2709 1.31934 8.98042 1.31934 6.69086C11.497 12.5445 21.676 0.530384 31.8529 6.39106V13.2606Z" fill="white"/>
<path d="M31.8529 26.7468C21.676 20.8863 11.497 32.9003 1.31934 27.0468C1.31934 24.7572 1.31934 22.4658 1.31934 20.1763C11.497 26.0299 21.676 14.0163 31.8529 19.8765V26.7468Z" fill="#D93729"/>
<path d="M31.8547 19.8781C21.6761 14.0152 11.498 26.0298 1.32031 20.1761C1.32031 17.9725 1.32031 15.7666 1.32031 13.5612C11.498 19.4136 21.6761 7.39995 31.8547 13.2623V19.8781Z" fill="#2E4B9F"/>
</g>
<defs>
<clipPath id="clip0_167_48">
<rect width="31.674" height="31.674" fill="white" transform="translate(0.745605 0.881348)"/>
</clipPath>
</defs>
</svg>
