<svg width="31" height="31" viewBox="0 0 31 31" fill="none" xmlns="http://www.w3.org/2000/svg">
<path d="M30.6576 25.708C20.5529 19.5824 10.4476 31.8317 0.342773 25.708C0.342773 18.9031 0.342773 12.0981 0.342773 5.2933C10.4476 11.418 20.5528 -0.831346 30.6576 5.2933V25.708Z" fill="#CCCBCA"/>
<path d="M30.4095 11.6204C20.4706 5.88933 10.5299 17.6441 0.590332 11.9137C0.590332 9.83897 0.590332 7.76425 0.590332 5.68952C10.5299 11.4205 20.4706 -0.334841 30.4095 5.39621V11.6204Z" fill="#0E9DB8"/>
<path d="M30.4114 25.3134C20.4707 19.5824 10.5309 31.3376 0.591309 25.6068C0.591309 23.5329 0.591309 21.4573 0.591309 19.3835C10.5309 25.1144 20.4707 13.3588 30.4114 19.0902V25.3134Z" fill="#30B353"/>
<path d="M30.413 18.4692C20.4725 12.7345 10.5317 24.4916 0.591309 18.7608C0.591309 16.6852 0.591309 14.6109 0.591309 12.5363C10.5317 18.2667 20.4725 6.51019 30.413 12.2446V18.4692Z" fill="white"/>
<path d="M30.413 12.2446C30.4114 12.0362 30.4114 11.8287 30.4114 11.6204C20.4708 5.88933 10.5318 17.6441 0.592285 11.9145V12.5372C10.5327 18.2668 20.4726 6.51029 30.413 12.2446Z" fill="#CF232E"/>
<path d="M30.4126 19.0919C30.4126 18.8844 30.4126 18.6768 30.4126 18.4693C20.4721 12.7346 10.5323 24.4901 0.591797 18.7609V19.3835C10.5323 25.1127 20.4722 13.357 30.4126 19.0919Z" fill="#CF232E"/>
<path d="M5.82857 8.07037C5.83032 8.07037 5.83109 8.06862 5.83109 8.06698C5.83109 8.06698 5.83021 8.06348 5.82857 8.06348C5.68728 8.03012 5.55888 8.00781 5.43563 7.99578C4.80472 7.93574 4.2123 8.06949 3.76555 8.4083C3.31957 8.74536 3.07471 9.25739 3.07471 9.89028C3.07471 10.5206 3.31957 11.1974 3.76555 11.7523C4.21241 12.3081 4.80483 12.6657 5.43563 12.7257C5.55888 12.7378 5.68728 12.7378 5.82857 12.7223C5.83032 12.7223 5.83109 12.7206 5.83109 12.7189C5.83109 12.7181 5.83021 12.7164 5.82857 12.7164C4.69175 12.4488 3.86737 11.2549 3.86737 10.104C3.86737 8.94702 4.69175 8.18793 5.82857 8.07037Z" fill="white"/>
<path d="M10.2561 8.58324C10.2561 8.58499 10.2561 8.58663 10.257 8.58663C10.2579 8.58838 10.2604 8.5875 10.2613 8.58575C10.3528 8.50165 10.4444 8.41679 10.536 8.33105C10.6276 8.37906 10.72 8.4263 10.8117 8.47245C10.8117 8.47245 10.8126 8.47333 10.8134 8.47333C10.8152 8.47245 10.8168 8.47158 10.8168 8.46895V8.46644C10.7817 8.36615 10.7475 8.26663 10.7124 8.16624C10.804 8.08039 10.8956 7.99388 10.9872 7.90639C10.9881 7.90552 10.989 7.903 10.9881 7.90213C10.9881 7.90213 10.9872 7.90038 10.9846 7.90125C10.8716 7.92619 10.7586 7.95101 10.6456 7.9742C10.6105 7.87391 10.5746 7.77352 10.5394 7.67225C10.5385 7.66886 10.5342 7.66973 10.5326 7.674C10.4975 7.78894 10.4631 7.90388 10.4281 8.01969C10.3142 8.042 10.2012 8.0642 10.0874 8.08575C10.0865 8.08575 10.0849 8.08662 10.084 8.0875C10.084 8.08837 10.084 8.09089 10.0857 8.09187C10.1774 8.14163 10.2689 8.19052 10.3606 8.23853C10.3255 8.35347 10.2911 8.4683 10.2561 8.58324Z" fill="white"/>
<path d="M12.1042 8.16223C12.1042 8.16398 12.1051 8.16562 12.1051 8.16562C12.1068 8.1665 12.1094 8.16562 12.1102 8.16387C12.2017 8.07376 12.2934 7.98288 12.3849 7.892C12.4766 7.93498 12.5681 7.97697 12.6597 8.01809C12.6606 8.01897 12.6615 8.01897 12.6623 8.01897C12.664 8.01809 12.6656 8.01722 12.6656 8.0147C12.6656 8.0147 12.6656 8.01295 12.6648 8.01208C12.6297 7.91343 12.5954 7.81566 12.5603 7.71789C12.652 7.62613 12.7435 7.53525 12.8352 7.4435C12.8369 7.44175 12.8369 7.43923 12.8369 7.43836C12.836 7.43748 12.8344 7.43748 12.8326 7.43748C12.7197 7.4692 12.6067 7.49916 12.4936 7.53011C12.4585 7.43158 12.4234 7.33195 12.3883 7.23341C12.3866 7.2309 12.3823 7.23166 12.3814 7.23516C12.3463 7.35262 12.3121 7.47007 12.277 7.58676C12.1631 7.61673 12.0493 7.64593 11.9354 7.67513C11.9346 7.67513 11.9337 7.676 11.9337 7.676C11.9328 7.67852 11.9328 7.68114 11.9346 7.68114C12.0261 7.72489 12.1177 7.76776 12.2094 7.81074C12.1744 7.92809 12.1393 8.04478 12.1042 8.16223Z" fill="white"/>
<path d="M13.9531 7.64854C13.9523 7.65029 13.9531 7.65193 13.9531 7.65193C13.9549 7.6528 13.9565 7.6528 13.9583 7.65018C14.0498 7.55667 14.1415 7.46317 14.233 7.36966C14.3246 7.40914 14.4162 7.44775 14.5078 7.48712C14.5087 7.48799 14.5096 7.48799 14.5103 7.48712C14.5121 7.48712 14.5137 7.48537 14.5137 7.48285C14.5137 7.48285 14.5137 7.4811 14.5129 7.48034C14.4777 7.38344 14.4435 7.28655 14.4084 7.18954C14.5001 7.09516 14.5925 7.00089 14.6841 6.90738C14.6859 6.90564 14.6859 6.90301 14.6859 6.90224C14.685 6.90137 14.6833 6.90137 14.6816 6.90137C14.5686 6.93571 14.4548 6.97005 14.3418 7.00352C14.3067 6.90574 14.2716 6.80797 14.2365 6.7102C14.2356 6.70769 14.2305 6.70933 14.2305 6.71272C14.1954 6.83116 14.1603 6.94949 14.1252 7.06782C14.0122 7.10129 13.8983 7.13464 13.7854 7.16734C13.7836 7.16822 13.782 7.16909 13.7811 7.17073C13.7802 7.17161 13.7811 7.17412 13.7829 7.17412C13.8744 7.21448 13.966 7.25385 14.0577 7.29333C14.0225 7.41177 13.9882 7.5301 13.9531 7.64854Z" fill="white"/>
<path d="M10.6792 9.81838C10.6441 9.71799 10.6089 9.6177 10.5739 9.5173C10.5722 9.51293 10.567 9.51468 10.567 9.51905C10.5319 9.63399 10.4968 9.74893 10.4617 9.86377C10.3487 9.88608 10.2349 9.90839 10.1219 9.92982C10.1194 9.9307 10.1185 9.93157 10.1185 9.93321C10.1177 9.93496 10.1185 9.93671 10.1194 9.93759C10.211 9.98735 10.3026 10.0362 10.3942 10.0851C10.3591 10.1992 10.3249 10.3141 10.2898 10.4291C10.2889 10.4308 10.2898 10.4316 10.2907 10.4325C10.2924 10.4325 10.2932 10.4325 10.2949 10.4316C10.3866 10.3467 10.4781 10.2617 10.5698 10.176C10.6613 10.224 10.7538 10.2711 10.8454 10.3184H10.8462L10.8471 10.3175C10.8496 10.3175 10.8514 10.315 10.8514 10.3132C10.8514 10.3132 10.8514 10.3115 10.8505 10.3115C10.8154 10.2121 10.7803 10.1126 10.7452 10.0122C10.8367 9.92556 10.9292 9.83894 11.0209 9.75145C11.0226 9.7497 11.0226 9.74806 11.0226 9.74631C11.0218 9.74456 11.0209 9.74456 11.0192 9.74456C10.9059 9.77026 10.7921 9.79432 10.6792 9.81838Z" fill="white"/>
<path d="M12.527 9.37157C12.4919 9.27292 12.4576 9.17515 12.4226 9.07651C12.4208 9.07213 12.4157 9.07388 12.4148 9.07826C12.3797 9.19582 12.3446 9.3124 12.3095 9.42909C12.1965 9.45906 12.0827 9.48826 11.9697 9.51735C11.968 9.51735 11.9672 9.51823 11.9672 9.52085C11.9663 9.5226 11.9672 9.52424 11.9672 9.52424C12.0588 9.56799 12.1512 9.61173 12.2429 9.6546C12.2078 9.77129 12.1727 9.88787 12.1376 10.0054C12.1376 10.0072 12.1376 10.008 12.1393 10.0088C12.1411 10.0088 12.1427 10.008 12.1436 10.008C12.2351 9.91696 12.3276 9.82608 12.4193 9.7352C12.5108 9.7772 12.6016 9.82018 12.6932 9.86217C12.6941 9.86217 12.695 9.8613 12.6958 9.8613C12.6984 9.86042 12.7001 9.85878 12.7001 9.85692C12.7001 9.85692 12.7001 9.85517 12.6993 9.85517C12.6642 9.7574 12.629 9.65963 12.5939 9.5611C12.6855 9.46934 12.778 9.37758 12.8696 9.28572C12.8696 9.28572 12.8705 9.28222 12.8705 9.28058C12.8696 9.27971 12.8688 9.27883 12.8671 9.27883C12.7538 9.31065 12.64 9.3415 12.527 9.37157Z" fill="white"/>
<path d="M14.7151 8.7428C14.6021 8.77627 14.4891 8.81061 14.3761 8.84407C14.341 8.74717 14.305 8.6494 14.2699 8.5524C14.2691 8.54802 14.2639 8.54978 14.263 8.55415C14.2279 8.67248 14.1937 8.79092 14.1586 8.90838C14.0447 8.94261 13.9318 8.97531 13.8178 9.00877C13.8169 9.00965 13.8153 9.01052 13.8153 9.01052C13.8144 9.01391 13.8153 9.01566 13.8162 9.01654C13.9078 9.05678 13.9994 9.09626 14.091 9.13662C14.0559 9.25407 14.0208 9.37251 13.9857 9.49073C13.9857 9.49248 13.9857 9.49336 13.9874 9.49423C13.9883 9.49423 13.9908 9.49336 13.9917 9.49336C14.0832 9.39909 14.1749 9.30547 14.2665 9.2112C14.3581 9.25068 14.4497 9.29093 14.5414 9.33041C14.5422 9.32953 14.5431 9.32953 14.5439 9.32953C14.5446 9.32953 14.5439 9.32953 14.5448 9.32866C14.5448 9.32866 14.5481 9.32614 14.5481 9.32439L14.5473 9.32264C14.5122 9.22575 14.4779 9.12885 14.4428 9.03196C14.5345 8.93758 14.626 8.8432 14.7177 8.74892C14.7185 8.74718 14.7185 8.74641 14.7185 8.74466C14.7185 8.7428 14.7177 8.74193 14.7151 8.7428Z" fill="white"/>
<path d="M8.82887 10.1357C8.79464 10.0319 8.75954 9.92809 8.7253 9.82518C8.72355 9.82091 8.71841 9.82091 8.71765 9.82605C8.68254 9.9376 8.64831 10.0498 8.61321 10.1614C8.49936 10.1743 8.38639 10.1863 8.27243 10.1973C8.27068 10.1973 8.27068 10.1982 8.26904 10.2C8.26904 10.2025 8.26904 10.2034 8.27079 10.2042C8.36244 10.2625 8.45485 10.32 8.5465 10.3766C8.5115 10.4881 8.47552 10.5997 8.44031 10.7111C8.43943 10.7129 8.44031 10.7136 8.44206 10.7154H8.44643C8.53797 10.6382 8.62961 10.561 8.72126 10.483C8.8128 10.5388 8.90532 10.5937 8.99696 10.6486H8.99871C9.00123 10.6477 9.00298 10.6461 9.00298 10.6443C9.00298 10.6434 9.00298 10.6426 9.0021 10.6426C8.967 10.5396 8.93189 10.4367 8.89679 10.3338C8.98832 10.2549 9.07997 10.176 9.17161 10.0954C9.17336 10.0945 9.17413 10.0928 9.17336 10.091C9.1726 10.0893 9.17085 10.0885 9.16997 10.0893C9.05569 10.1057 8.94272 10.1211 8.82887 10.1357Z" fill="white"/>
<path d="M10.6559 11.6761C10.6208 11.5758 10.5848 11.4754 10.5497 11.3751C10.5497 11.3716 10.5446 11.3725 10.5428 11.376C10.5077 11.4909 10.4735 11.6058 10.4384 11.7207C10.3246 11.7439 10.2116 11.7662 10.0976 11.7867C10.0968 11.7867 10.0951 11.7892 10.0942 11.791C10.0942 11.791 10.0942 11.7936 10.096 11.7945C10.1876 11.8433 10.28 11.8923 10.3717 11.9412C10.3367 12.0561 10.3015 12.1702 10.2664 12.2851C10.2655 12.2876 10.2664 12.2895 10.2673 12.2902C10.269 12.2902 10.2715 12.2902 10.2724 12.2885C10.3639 12.2044 10.4556 12.1186 10.5472 12.0329C10.6388 12.0809 10.7304 12.1289 10.822 12.1762H10.8246C10.8263 12.1753 10.8271 12.1737 10.8271 12.171C10.8271 12.1702 10.8271 12.1693 10.8271 12.1685C10.792 12.069 10.7569 11.9686 10.7218 11.8691C10.8133 11.7825 10.9058 11.6959 10.9975 11.6093C10.9983 11.6076 10.9992 11.605 10.9983 11.605C10.9983 11.6032 10.9966 11.6025 10.995 11.6025C10.8819 11.628 10.7689 11.652 10.6559 11.6761Z" fill="white"/>
<path d="M12.5039 11.2301C12.4688 11.1323 12.4336 11.0337 12.3986 10.9351C12.3977 10.9317 12.3917 10.9333 12.3908 10.9368C12.3566 11.0543 12.3215 11.171 12.2873 11.2877C12.1743 11.3176 12.0605 11.3468 11.9475 11.3752C11.9457 11.376 11.9441 11.3777 11.9432 11.3803C11.9423 11.3803 11.9432 11.3821 11.945 11.3828C12.0366 11.4266 12.1281 11.4694 12.2198 11.5123C12.1847 11.629 12.1496 11.7456 12.1145 11.8631C12.1145 11.8657 12.1145 11.8674 12.1154 11.8674C12.1171 11.8683 12.1196 11.8674 12.1205 11.8665C12.2121 11.7757 12.3037 11.6847 12.3953 11.5939C12.4869 11.6368 12.5785 11.6788 12.67 11.7208C12.6709 11.7216 12.6718 11.7216 12.6727 11.7208C12.6744 11.7208 12.6761 11.7182 12.6761 11.7156C12.6761 11.7156 12.6761 11.7139 12.6752 11.7139C12.6401 11.6152 12.605 11.5174 12.5699 11.4197C12.6614 11.3279 12.7539 11.2362 12.8456 11.1443C12.8473 11.1434 12.8473 11.1409 12.8473 11.1409C12.8473 11.1392 12.8456 11.1374 12.8439 11.1383C12.7307 11.1691 12.6169 11.2001 12.5039 11.2301Z" fill="white"/>
<path d="M14.3523 10.7035C14.3172 10.6066 14.2828 10.5088 14.2478 10.4119C14.2461 10.4085 14.2409 10.4101 14.2409 10.4136C14.2058 10.532 14.17 10.6503 14.1348 10.7687C14.0218 10.8022 13.9088 10.8348 13.7957 10.8683C13.794 10.8683 13.7923 10.8708 13.7914 10.8725C13.7905 10.8725 13.7914 10.875 13.7931 10.8759C13.8848 10.9154 13.9763 10.9549 14.0679 10.9952C14.0328 11.1127 13.9986 11.2311 13.9635 11.3486C13.9626 11.352 13.9635 11.3529 13.9644 11.3537C13.9661 11.3546 13.9678 11.3537 13.9695 11.352C14.061 11.2585 14.1527 11.1641 14.2443 11.0707C14.3359 11.1101 14.4266 11.1497 14.5183 11.1899C14.52 11.1899 14.5208 11.1899 14.5217 11.189C14.5234 11.189 14.5243 11.1865 14.5243 11.1848C14.5243 11.1848 14.5243 11.183 14.5234 11.1822C14.4892 11.0852 14.454 10.9876 14.4199 10.8906C14.5114 10.7962 14.6031 10.7027 14.6947 10.6084C14.6964 10.6075 14.6964 10.6042 14.6964 10.6042C14.6956 10.6033 14.6939 10.6016 14.6922 10.6024C14.5791 10.6365 14.4653 10.67 14.3523 10.7035Z" fill="white"/>
<path d="M8.8068 11.9909C8.77169 11.8871 8.73659 11.7842 8.70148 11.6804C8.70061 11.677 8.69547 11.6779 8.69382 11.6813C8.65959 11.7929 8.62449 11.9052 8.59026 12.0167C8.47641 12.0295 8.36344 12.0415 8.24959 12.0527C8.24872 12.0527 8.24697 12.0545 8.24609 12.0562C8.24609 12.0562 8.24609 12.0587 8.24784 12.0596C8.33938 12.1171 8.43103 12.1745 8.52256 12.2311C8.48757 12.3426 8.45323 12.4541 8.41812 12.5656C8.41637 12.5681 8.41812 12.5699 8.41812 12.5699C8.41987 12.5716 8.4225 12.5716 8.42326 12.5699C8.5148 12.4935 8.60644 12.4163 8.69809 12.3382C8.78963 12.3949 8.88127 12.4498 8.97292 12.5046C8.97379 12.5055 8.97467 12.5046 8.97467 12.5046H8.97554C8.97729 12.5046 8.97992 12.5021 8.97992 12.5003L8.97904 12.4978C8.94394 12.3949 8.90872 12.292 8.87373 12.1891C8.96526 12.1101 9.05778 12.0313 9.14932 11.9515C9.14932 11.9515 9.15107 11.948 9.14932 11.948C9.14932 11.9463 9.14932 11.9447 9.14681 11.9447C9.03373 11.9608 8.91988 11.9763 8.8068 11.9909Z" fill="white"/>
<path d="M6.95854 12.1246C6.92344 12.0166 6.88833 11.9094 6.85323 11.8022C6.85235 11.7987 6.84721 11.7987 6.84557 11.8022C6.81047 11.9103 6.77536 12.0183 6.74026 12.1255C6.62728 12.1255 6.51344 12.1246 6.40046 12.1213C6.39871 12.1213 6.39795 12.123 6.39795 12.1246C6.39795 12.1246 6.39795 12.1272 6.39882 12.128C6.49047 12.1976 6.58201 12.2653 6.67365 12.3322C6.63855 12.4403 6.60432 12.5474 6.56921 12.6547C6.56834 12.6572 6.56921 12.659 6.57096 12.6599C6.57184 12.6607 6.57348 12.6607 6.57523 12.6599C6.66676 12.5938 6.75841 12.5278 6.85006 12.4601C6.94159 12.5261 7.03324 12.5913 7.12488 12.6565C7.12576 12.6574 7.12663 12.6574 7.12663 12.6574C7.12915 12.6574 7.1309 12.6556 7.1309 12.653V12.6505C7.09579 12.5433 7.06058 12.4369 7.02558 12.3297C7.11712 12.2619 7.20877 12.1925 7.30041 12.1221C7.30129 12.1213 7.30216 12.1187 7.30129 12.1187C7.30129 12.117 7.29954 12.1154 7.29779 12.1154C7.1846 12.1195 7.07162 12.1229 6.95854 12.1246Z" fill="white"/>
</svg>
