<svg width="33" height="33" viewBox="0 0 33 33" fill="none" xmlns="http://www.w3.org/2000/svg">
<g clip-path="url(#clip0_167_57)">
<path d="M32.0843 27.3588C21.6913 21.4001 11.2983 33.3174 0.905273 27.3588C0.905273 20.2668 0.905273 13.1698 0.905273 6.07784C11.2983 12.0365 21.6913 0.119182 32.0843 6.07784V27.3588Z" fill="#49A9F7"/>
<path d="M4.5428 15.5058C4.62199 15.3524 4.65663 15.2435 4.65663 15.0653C4.65663 14.7684 4.46857 14.5061 4.12213 14.3923C4.46857 14.4516 4.65663 14.2586 4.65663 13.9666C4.65663 13.7885 4.62199 13.6697 4.5428 13.4816C4.5428 13.4866 3.88458 11.9474 3.63218 11.3288C3.60248 11.2546 3.58764 11.1704 3.58764 11.0615C3.58764 10.8883 3.75095 10.7992 3.92417 10.8438C4.08254 10.8834 4.25081 11.0764 4.25081 11.2496C4.25081 11.4624 4.14193 11.5268 4.03305 11.4971C3.89943 11.4624 3.84499 11.3882 3.84004 11.2892C3.84004 11.2199 3.86973 11.2001 3.91922 11.215C4.038 11.2447 4.00336 11.3981 4.00336 11.3981C4.06275 11.403 4.10729 11.3535 4.08254 11.2694C4.12708 11.2694 4.16668 11.2595 4.19637 11.2298C4.16668 11.1902 4.12708 11.1605 4.08254 11.1407C4.11224 11.0566 4.07264 11.0022 3.99346 10.9626C4.00831 11.0022 4.00831 11.0368 4.00336 11.0665C3.87963 10.9972 3.68662 10.9972 3.68662 11.2199C3.68662 11.4377 3.83509 11.6653 4.11224 11.6901C4.0479 11.7049 4.01326 11.7643 4.00336 11.8336C4.06275 11.8187 4.12213 11.8286 4.12213 11.8286C4.08749 11.8781 4.04295 11.9177 4.0479 12.0316C4.09739 12.0217 4.14688 11.987 4.21122 12.0316C4.10729 12.2097 4.23596 12.5314 4.5626 12.67C4.44382 12.5017 4.38443 12.3384 4.38443 12.185C4.38443 11.695 4.51806 11.6406 4.51806 11.2991C4.51806 11.1556 4.44877 10.9923 4.30525 10.8537C4.39928 10.8487 4.45867 10.8141 4.49331 10.7597C4.42898 10.6557 4.38443 10.6211 4.27556 10.5864C4.39928 10.5518 4.52301 10.438 4.52301 10.2202C4.52301 9.88367 4.38443 9.71045 4.38443 9.32937C4.38443 9.11657 4.55765 8.88891 4.55765 8.88891C4.25576 8.85427 4.10729 9.09677 4.19142 9.34422C4.14193 9.33927 4.09739 9.31453 4.06275 9.26999C4.04295 9.32938 4.07759 9.40856 4.12213 9.4828C4.08254 9.49269 4.0578 9.4729 3.99841 9.4432C4.00336 9.50754 4.04295 9.58673 4.13698 9.67581C3.86478 9.53724 3.69652 9.67581 3.69652 9.87872C3.69652 10.0321 3.80045 10.1707 3.90438 10.1955C3.93902 10.2054 3.98356 10.2054 4.01326 10.1905C4.03305 10.2351 4.02315 10.2895 4.00336 10.3291C4.07759 10.3291 4.12708 10.2944 4.09244 10.1905C4.15183 10.2004 4.19637 10.1905 4.22606 10.1608C4.19637 10.1113 4.14688 10.0767 4.09244 10.0618C4.13698 9.98265 4.08749 9.92326 4.0182 9.86387C4.0182 9.86387 4.06275 10.0519 3.94892 10.0222C3.89943 10.0074 3.85489 9.9777 3.85489 9.90347C3.85489 9.83913 3.90932 9.76489 4.038 9.80448C4.16668 9.84408 4.27061 9.95296 4.27061 10.1608C4.27061 10.3538 4.11719 10.4132 3.91427 10.3637C3.73116 10.3192 3.59259 10.1757 3.59259 9.9876C3.59259 9.7352 3.95387 9.26009 3.95387 9.03243C3.95387 8.86416 3.80539 8.72559 3.65692 8.686C3.56289 8.66125 3.47876 8.6761 3.41937 8.70084C3.35503 8.63651 3.2709 8.56227 3.18181 8.53258C3.03334 8.48309 2.88487 8.52268 2.88487 8.69095C2.88487 8.9186 3.24615 9.62632 3.24615 9.87872C3.24615 10.0717 3.10758 10.1262 2.92446 10.0519C2.72155 9.97275 2.56813 9.81438 2.56813 9.62137C2.56813 9.41351 2.67206 9.36897 2.80074 9.41351C2.92941 9.45805 2.98385 9.56693 2.98385 9.63127C2.98385 9.7055 2.93931 9.7055 2.88982 9.68571C2.78094 9.64611 2.82053 9.4828 2.82053 9.4828C2.75125 9.49764 2.7067 9.52734 2.7463 9.63127C2.69186 9.60652 2.64237 9.61147 2.61267 9.64117C2.64237 9.69066 2.69186 9.73025 2.7463 9.75499C2.71165 9.83418 2.76114 9.89852 2.83538 9.94801C2.81558 9.89852 2.80569 9.83913 2.82548 9.80448C2.85518 9.83418 2.89972 9.86882 2.93436 9.87872C3.03829 9.91831 3.14222 9.84408 3.14222 9.69066C3.14222 9.48774 2.97395 9.24029 2.70176 9.2106C2.79579 9.1809 2.83538 9.12646 2.84033 9.06708C2.78094 9.05718 2.75125 9.06213 2.7166 9.02253C2.76114 8.97799 2.79579 8.9186 2.77599 8.84437C2.74135 8.86416 2.69681 8.85921 2.64732 8.83447C2.73145 8.64146 2.58298 8.29997 2.28109 8.1416C2.28109 8.1416 2.44935 8.48309 2.44935 8.6959C2.44935 9.07697 2.31078 9.16111 2.31078 9.49764C2.31078 9.7154 2.43451 9.90841 2.55823 10.0272C2.44935 9.9876 2.40481 9.9975 2.34047 10.0618C2.37512 10.141 2.43451 10.2103 2.52854 10.2746C2.38996 10.3241 2.31573 10.4429 2.31573 10.5864C2.31573 10.9279 2.44935 11.0665 2.44935 11.5614C2.44935 11.7099 2.38996 11.8435 2.27119 11.9326C2.59783 12.0019 2.72155 11.7643 2.61762 11.5169C2.68196 11.5169 2.73145 11.5762 2.78589 11.6208C2.78589 11.507 2.74135 11.4377 2.71165 11.3684C2.71165 11.3684 2.76609 11.3931 2.82053 11.4327C2.81558 11.3585 2.78094 11.2793 2.71165 11.2199C2.9888 11.3733 3.13727 11.2397 3.13727 11.022C3.13727 10.8042 2.94426 10.6805 2.82053 10.6706C2.81558 10.6359 2.81558 10.6062 2.83043 10.5765C2.75125 10.5666 2.7166 10.5963 2.74135 10.7003C2.69681 10.6904 2.65721 10.7003 2.62752 10.7201C2.65721 10.7695 2.69681 10.8091 2.74135 10.8339C2.71165 10.8982 2.76114 10.9774 2.82053 11.0121C2.82053 11.0121 2.78589 10.8388 2.90467 10.8834C2.94921 10.9032 2.98385 10.9428 2.98385 11.0071C2.98385 11.1061 2.92941 11.1407 2.79084 11.0912C2.68196 11.0516 2.57308 10.9131 2.57308 10.7003C2.57308 10.527 2.7463 10.4429 2.89972 10.5023C3.07293 10.5716 3.23625 10.7646 3.23625 10.9378C3.23625 11.0516 3.22636 11.1209 3.19171 11.1803C2.94921 11.6455 2.29098 12.764 2.29098 12.7591C2.2118 12.8927 2.17716 12.9917 2.17716 13.1748C2.17716 13.4668 2.36522 13.7835 2.71165 13.9468C2.36522 13.8429 2.17716 13.9815 2.17716 14.2784C2.17716 14.4566 2.20685 14.5853 2.29098 14.7882C2.29098 14.7931 2.94426 16.4412 3.20161 17.0549C3.2313 17.134 3.24615 17.2132 3.24615 17.3221C3.24615 17.4953 3.08283 17.5795 2.90962 17.5201C2.75125 17.4656 2.58298 17.2479 2.58298 17.0697C2.58298 16.8569 2.69186 16.8074 2.80074 16.847C2.93931 16.8965 2.99375 16.9757 2.99375 17.0697C2.99375 17.139 2.96406 17.1538 2.91456 17.139C2.79579 17.0944 2.83043 16.946 2.83043 16.946C2.77104 16.9361 2.7265 16.9757 2.75125 17.0647C2.7067 17.0598 2.66711 17.0647 2.63742 17.0895C2.66711 17.134 2.7067 17.1687 2.75125 17.1984C2.7265 17.2776 2.76114 17.3369 2.84033 17.3864C2.82548 17.3468 2.82548 17.3122 2.83043 17.2825C2.95416 17.3666 3.14717 17.3765 3.14717 17.1538C3.14717 16.9361 2.9987 16.7035 2.72155 16.6441C2.78589 16.6391 2.82053 16.5847 2.83043 16.5105C2.78094 16.5105 2.7265 16.4907 2.72155 16.4956C2.75125 16.4511 2.80074 16.4164 2.79579 16.3026C2.7463 16.3075 2.69681 16.3323 2.62752 16.2779C2.73145 16.1096 2.60277 15.778 2.28109 15.5751C2.39986 15.7681 2.45925 15.9413 2.45925 16.0947C2.45925 16.5847 2.32563 16.6144 2.32563 16.9559C2.32563 17.0944 2.39491 17.2825 2.53844 17.4409C2.44935 17.431 2.39491 17.4508 2.36027 17.4953C2.35037 17.4953 2.33553 17.4904 2.32068 17.4854C2.35532 17.5646 2.41471 17.6339 2.50874 17.6982C2.37017 17.7477 2.29593 17.8665 2.29593 18.01C2.29593 18.3515 2.42956 18.4901 2.42956 18.985C2.42956 19.1384 2.37017 19.2671 2.25139 19.3562C2.57803 19.4255 2.70176 19.1879 2.59783 18.9404C2.66216 18.9404 2.71165 18.9998 2.76114 19.0444C2.76114 18.9305 2.7166 18.8613 2.68691 18.792C2.68691 18.792 2.74135 18.8167 2.79579 18.8563C2.79084 18.7821 2.75619 18.7029 2.68691 18.6435C2.96406 18.7969 3.11253 18.6633 3.11253 18.4455C3.11253 18.2278 2.91951 18.1041 2.79579 18.0892C2.79084 18.0595 2.79084 18.0249 2.80569 17.9952C2.7265 17.9853 2.69186 18.015 2.7166 18.1189C2.67206 18.109 2.63247 18.1189 2.60277 18.1387C2.63247 18.1882 2.67206 18.2278 2.7166 18.2525C2.68691 18.3169 2.7364 18.396 2.79579 18.4307C2.79579 18.4307 2.76114 18.2575 2.87992 18.302C2.92446 18.3218 2.95911 18.3614 2.95911 18.4257C2.95911 18.5247 2.90467 18.5594 2.76609 18.5099C2.65226 18.4653 2.54833 18.3317 2.54833 18.1189C2.54833 17.9457 2.72155 17.8615 2.87497 17.9209C3.04819 17.9902 3.21151 18.1832 3.21151 18.3565C3.21151 18.4703 3.20161 18.5396 3.16697 18.599C2.91951 19.0642 2.26129 20.1827 2.26129 20.1777C2.1821 20.3113 2.14746 20.4103 2.14746 20.5885C2.14746 20.8805 2.33553 21.1972 2.68196 21.3605C2.69186 21.3655 2.69681 21.3704 2.7067 21.3704C2.36522 21.2714 2.1821 21.41 2.1821 21.702C2.1821 21.8802 2.2118 22.0089 2.29593 22.2118C2.29593 22.2167 2.94921 23.8648 3.20656 24.4784C3.23625 24.5576 3.2511 24.6368 3.2511 24.7457C3.2511 24.9189 3.08778 25.003 2.91456 24.9436C2.75619 24.8892 2.58793 24.6714 2.58793 24.4933C2.58793 24.2805 2.69681 24.231 2.80569 24.2706C2.94426 24.3201 2.9987 24.3993 2.9987 24.4933C2.9987 24.5626 2.969 24.5774 2.91951 24.5626C2.80074 24.518 2.83538 24.3696 2.83538 24.3696C2.77599 24.3597 2.73145 24.4042 2.75619 24.4883C2.71165 24.4834 2.67206 24.4883 2.64237 24.5131C2.67206 24.5576 2.71165 24.5923 2.75619 24.622C2.73145 24.7061 2.76609 24.7655 2.84528 24.81C2.83043 24.7704 2.83043 24.7358 2.83538 24.7061C2.95911 24.7902 3.15212 24.8001 3.15212 24.5774C3.15212 24.3597 3.00365 24.1271 2.7265 24.0677C2.79084 24.0627 2.82548 24.0083 2.83538 23.939C2.78589 23.939 2.73145 23.9192 2.7265 23.9241C2.75619 23.8796 2.80569 23.845 2.80074 23.7311C2.75125 23.7361 2.70176 23.7608 2.63247 23.7064C2.7364 23.5381 2.60772 23.2065 2.28603 23.0036C2.40481 23.1966 2.4642 23.3698 2.4642 23.5233C2.4642 24.0132 2.33058 24.0429 2.33058 24.3844C2.33058 24.5279 2.39986 24.7061 2.54339 24.8694C2.44935 24.8595 2.38996 24.8793 2.35532 24.9288C2.41966 25.0476 2.4642 25.0872 2.57308 25.1416C2.44935 25.1565 2.32563 25.2455 2.32563 25.4633C2.32563 25.8048 2.4642 25.9978 2.4642 26.3789C2.4642 26.5917 2.29593 26.7896 2.29593 26.7896C2.59783 26.8886 2.7463 26.656 2.66216 26.3987C2.71165 26.4086 2.75619 26.4383 2.79084 26.4878C2.81063 26.4333 2.77599 26.3442 2.73145 26.265C2.77104 26.2601 2.79579 26.2848 2.85518 26.3145C2.85023 26.2452 2.81063 26.1661 2.7166 26.0621C2.9888 26.2353 3.15707 26.1017 3.15707 25.8988C3.15707 25.7454 3.05314 25.6019 2.94921 25.5672C2.91456 25.5573 2.86507 25.5524 2.84033 25.5623C2.82053 25.5128 2.83043 25.4633 2.85023 25.4287C2.77599 25.4188 2.7265 25.4485 2.76114 25.5524C2.70176 25.5375 2.65721 25.5375 2.62752 25.5623C2.66216 25.6167 2.7067 25.6563 2.76114 25.6761C2.7166 25.7503 2.76609 25.8147 2.83538 25.879C2.83538 25.879 2.79084 25.686 2.90467 25.7256C2.95416 25.7454 2.9987 25.7751 2.9987 25.8493C2.9987 25.9137 2.94426 25.9879 2.81558 25.9285C2.68691 25.8741 2.58298 25.7454 2.58298 25.5375C2.58298 25.3445 2.7364 25.3099 2.93931 25.3792C3.12243 25.4386 3.261 25.587 3.261 25.7751C3.261 26.0324 2.89972 26.4828 2.89972 26.7055C2.89972 26.8738 3.04819 27.0272 3.19666 27.0767C3.29069 27.1064 3.37483 27.0915 3.43422 27.0668C3.49855 27.1311 3.58269 27.2054 3.67177 27.2301C3.82024 27.2747 3.96871 27.2202 3.96871 27.0519C3.96871 26.8292 3.60743 26.1463 3.60743 25.8889C3.60743 25.6959 3.74601 25.6415 3.92912 25.6959C4.13203 25.7602 4.28545 25.8889 4.28545 26.0819C4.28545 26.2898 4.18152 26.3492 4.05285 26.3244C3.92417 26.2947 3.86973 26.1908 3.86973 26.1265C3.86973 26.0522 3.91427 26.0473 3.96376 26.0621C4.07264 26.0918 4.03305 26.2601 4.03305 26.2551C4.08254 26.2601 4.12708 26.2205 4.08749 26.1215C4.14193 26.1364 4.19142 26.1265 4.22112 26.0918C4.19142 26.0473 4.14193 26.0126 4.08749 25.9928C4.12213 25.9137 4.07264 25.8543 3.99841 25.8147C4.0182 25.8642 4.0281 25.9186 4.00831 25.9582C3.97861 25.9285 3.93407 25.9038 3.89943 25.8939C3.7955 25.8642 3.69157 25.9434 3.69157 26.0968C3.69157 26.2997 3.85983 26.5422 4.13203 26.5372C4.038 26.5768 3.99841 26.6362 3.99346 26.7006C4.05285 26.7055 4.08254 26.7006 4.11719 26.7303C4.07264 26.7797 4.038 26.8441 4.0578 26.9134C4.09739 26.8886 4.13698 26.8886 4.18647 26.9084C4.10234 27.1113 4.25081 27.438 4.5527 27.537C4.5527 27.537 4.37949 27.2301 4.37949 27.0173C4.37949 26.6362 4.51806 26.5273 4.51806 26.1908C4.51806 25.9731 4.39433 25.8048 4.27061 25.7108C4.37949 25.7305 4.42403 25.7157 4.48836 25.6365C4.45372 25.5672 4.39433 25.5029 4.3003 25.4583C4.43887 25.3891 4.51311 25.2505 4.51311 25.107C4.51311 24.7655 4.37949 24.6517 4.37949 24.1617C4.37949 24.0083 4.43887 23.8697 4.55765 23.7559C4.23101 23.7509 4.10729 23.9984 4.20627 24.2359C4.14193 24.2359 4.09739 24.1815 4.04295 24.1419C4.04295 24.2557 4.08749 24.3201 4.11719 24.3844C4.11719 24.3844 4.06275 24.3696 4.00831 24.3349C4.01326 24.4091 4.0479 24.4834 4.11719 24.5329C3.84004 24.4141 3.69157 24.5527 3.69157 24.7704C3.69157 24.9882 3.88458 25.102 4.00831 25.0971C4.01326 25.1268 4.01326 25.1614 3.99841 25.1911C4.07759 25.1911 4.11719 25.1565 4.08749 25.0575C4.13203 25.0624 4.17162 25.0476 4.20132 25.0228C4.17162 24.9783 4.13203 24.9436 4.08749 24.9239C4.11719 24.8546 4.06769 24.7853 4.00831 24.7556C4.00831 24.7556 4.04295 24.9238 3.92417 24.8942C3.87963 24.8793 3.84499 24.8447 3.84499 24.7754C3.84499 24.6764 3.89943 24.6368 4.038 24.6714C4.14688 24.7011 4.25576 24.8199 4.25576 25.0327C4.25576 25.2059 4.08749 25.3198 3.92912 25.2703C3.7559 25.2208 3.59259 25.0278 3.59259 24.8546C3.59259 24.7457 3.60248 24.6714 3.63713 24.6121C3.89448 24.1567 4.54775 22.9343 4.54775 22.9294C4.62694 22.776 4.66158 22.672 4.66158 22.4889C4.66158 22.192 4.47352 21.9297 4.12708 21.8158C4.47352 21.8752 4.66158 21.6822 4.66158 21.3902C4.66158 21.2121 4.62694 21.0933 4.54775 20.9052C4.54775 20.9102 3.88953 19.3661 3.63713 18.7524C3.60743 18.6781 3.59259 18.594 3.59259 18.4851C3.59259 18.3119 3.7559 18.2228 3.92912 18.2674C4.08749 18.307 4.25576 18.5 4.25576 18.6732C4.25576 18.8811 4.14688 18.9553 4.038 18.9256C3.90438 18.891 3.84994 18.8167 3.84499 18.7177C3.84499 18.6484 3.87468 18.6287 3.92417 18.6435C4.04295 18.6732 4.00831 18.8266 4.00831 18.8266C4.06769 18.8266 4.11224 18.7821 4.08749 18.6979C4.13203 18.6979 4.17162 18.688 4.20132 18.6583C4.17162 18.6188 4.13203 18.5891 4.08749 18.5693C4.11719 18.4851 4.07759 18.4307 3.99841 18.3911C4.01326 18.4307 4.01326 18.4653 4.00831 18.495C3.88458 18.4257 3.69157 18.4257 3.69157 18.6484C3.69157 18.8662 3.84004 19.0939 4.11719 19.1186C4.05285 19.1335 4.0182 19.1928 4.00831 19.2621C4.06275 19.2522 4.12213 19.2621 4.12213 19.2621C4.08749 19.3116 4.04295 19.3512 4.0479 19.465C4.09739 19.4551 4.14688 19.4254 4.21122 19.465C4.10729 19.6432 4.23596 19.9649 4.5626 20.1084C4.44382 19.9402 4.38443 19.7768 4.38443 19.6234C4.38443 19.1335 4.51806 19.079 4.51806 18.7375C4.51806 18.594 4.44877 18.4307 4.30525 18.2921C4.39928 18.2872 4.45867 18.2525 4.49331 18.1981C4.45867 18.1288 4.39928 18.0694 4.30525 18.0199C4.44382 17.9506 4.51806 17.8121 4.51806 17.6685C4.51806 17.327 4.37949 17.2132 4.37949 16.7183C4.37949 16.5649 4.43887 16.4263 4.55765 16.3125C4.23101 16.3075 4.10729 16.5599 4.20627 16.7926C4.14193 16.8025 4.09244 16.748 4.04295 16.7084C4.04295 16.8222 4.08749 16.8816 4.11719 16.9509C4.11719 16.9509 4.06275 16.9361 4.00831 16.9014C4.01326 16.9757 4.0479 17.0499 4.11719 17.0994C3.84004 16.9806 3.69157 17.1192 3.69157 17.3369C3.69157 17.5547 3.88458 17.6685 4.00831 17.6636C4.01326 17.6933 4.01326 17.7279 3.99841 17.7576C4.07759 17.7576 4.11719 17.723 4.08749 17.624C4.13203 17.6289 4.17162 17.6141 4.20132 17.5893C4.17162 17.5448 4.13203 17.5102 4.08749 17.4904C4.11719 17.4211 4.06769 17.3518 4.00831 17.3221C4.00831 17.3221 4.04295 17.4904 3.92417 17.4607C3.87963 17.4458 3.84499 17.4112 3.84499 17.3419C3.84499 17.2429 3.89943 17.2033 4.038 17.238C4.14688 17.2677 4.25576 17.3864 4.25576 17.5992C4.25576 17.7725 4.08749 17.8863 3.92912 17.8368C3.7559 17.7873 3.59259 17.5943 3.59259 17.4211C3.59259 17.3122 3.60248 17.238 3.63713 17.1786C3.88953 16.7381 4.5428 15.5107 4.5428 15.5058ZM3.41937 14.6051C3.32534 14.323 3.07788 14.1003 2.85518 13.9914C3.07788 14.0508 3.32534 13.9914 3.41937 13.7687C3.5134 14.0508 3.76085 14.2685 3.98356 14.3527C3.7559 14.318 3.5134 14.3824 3.41937 14.6051ZM3.15212 8.78993C3.22141 8.73054 3.41937 8.96314 3.41937 8.96314C3.41937 8.96314 3.61733 8.85427 3.68662 8.9582C3.7658 9.08687 3.53815 9.42836 3.41937 9.68571C3.30059 9.34917 3.07293 8.86416 3.15212 8.78993ZM3.04819 10.3538C3.03829 10.3439 3.02344 10.339 3.01355 10.3291C3.19171 10.3489 3.34018 10.3291 3.41937 10.2153C3.49855 10.3835 3.64702 10.4974 3.82519 10.5914C3.81529 10.5914 3.80045 10.5914 3.79055 10.5914C3.59753 10.5617 3.45896 10.6656 3.41937 10.73C3.37978 10.6409 3.2412 10.4479 3.04819 10.3538ZM2.42461 13.249C2.42461 13.15 2.44935 13.0659 2.48895 12.9966C2.67701 12.67 3.28574 11.5762 3.41442 11.3387C3.54309 11.6604 4.15183 13.1401 4.33989 13.5905C4.37949 13.6845 4.40423 13.7835 4.40423 13.8875C4.40423 14.1399 4.17657 14.1745 4.0479 14.1399C3.89448 14.1003 3.73611 13.932 3.73611 13.7835C3.73611 13.6895 3.7856 13.645 3.85983 13.6647C4.03305 13.7142 4.02315 13.8578 3.98851 13.9468C4.09739 13.927 4.16173 13.8528 4.14193 13.7538C4.20132 13.7588 4.26071 13.7439 4.31515 13.6944C4.27061 13.6301 4.22112 13.5757 4.14193 13.5559C4.17657 13.4222 4.08254 13.3332 3.98851 13.2738C4.0182 13.3876 4.038 13.5163 3.85983 13.4668C3.73116 13.4321 3.62723 13.4222 3.56784 13.4915C3.56289 13.3777 3.55299 12.9224 3.55299 12.9224C3.54804 12.7492 3.7757 12.8234 3.92417 12.9174C3.86973 12.7096 3.7559 12.571 3.4936 12.5166C3.56289 12.5067 3.62723 12.4671 3.62723 12.3483C3.62723 12.1899 3.49855 11.9771 3.41442 11.8979C3.33029 11.9227 3.20161 12.0563 3.20161 12.2147C3.20161 12.3335 3.2709 12.4176 3.33523 12.4621C3.07293 12.3483 2.95911 12.4126 2.90467 12.5859C3.05314 12.5908 3.28574 12.6601 3.27585 12.8284C3.27585 12.8284 3.26595 13.2738 3.261 13.3876C3.20161 13.2837 3.09768 13.2243 2.969 13.1797C2.79084 13.1154 2.81063 13.0016 2.84033 12.9026C2.7463 12.9026 2.65226 12.9273 2.68691 13.0857C2.60772 13.056 2.55328 13.0758 2.51369 13.1154C2.56813 13.1995 2.62752 13.254 2.68691 13.2886C2.66711 13.3728 2.73145 13.4866 2.84033 13.5806C2.80569 13.4717 2.79579 13.3183 2.969 13.3827C3.04324 13.4074 3.09273 13.4816 3.09273 13.5757C3.09273 13.7241 2.93436 13.7885 2.78094 13.7291C2.65226 13.6796 2.42461 13.5014 2.42461 13.249ZM3.38472 21.1972C3.39462 21.1774 3.39462 21.1477 3.39957 21.118C3.40452 21.1477 3.40452 21.1774 3.41442 21.2071C3.50845 21.4892 3.7559 21.707 3.97861 21.7911C3.7559 21.7565 3.50845 21.8208 3.41442 22.0435C3.32039 21.7614 3.07293 21.5387 2.85023 21.4298C2.83043 21.4249 2.80569 21.4199 2.78589 21.41C2.78094 21.41 2.77599 21.4051 2.77104 21.4001C2.78589 21.4051 2.80569 21.41 2.82053 21.415C3.04819 21.4793 3.29069 21.4199 3.38472 21.1972ZM3.68167 27.0173C3.61238 27.0816 3.41442 26.849 3.41442 26.849C3.41442 26.849 3.21646 26.953 3.14717 26.8441C3.06799 26.7154 3.29564 26.3838 3.41442 26.1215C3.53815 26.463 3.7658 26.9381 3.68167 27.0173ZM3.79055 25.4435C3.80045 25.4485 3.81529 25.4583 3.82519 25.4633C3.64702 25.4534 3.49855 25.4781 3.41937 25.592C3.34018 25.4237 3.19171 25.3049 3.01355 25.201H3.04819C3.2412 25.2455 3.37978 25.1367 3.41937 25.0723C3.45896 25.1713 3.59259 25.3643 3.79055 25.4435ZM4.40918 22.4741C4.40918 22.573 4.38443 22.6621 4.34484 22.7364C4.15678 23.1075 3.54804 24.2458 3.41937 24.4735C3.29069 24.1617 2.68196 22.6374 2.49389 22.1425C2.4543 22.0386 2.42956 21.9346 2.42956 21.8356C2.42956 21.5832 2.65721 21.5882 2.78589 21.6377C2.93931 21.6971 3.09768 21.8703 3.09768 22.0188C3.09768 22.1128 3.04819 22.1524 2.97395 22.1276C2.80074 22.0633 2.81063 21.9148 2.84528 21.8356C2.7364 21.8455 2.67206 21.9049 2.69186 22.0089C2.63247 21.994 2.57308 21.999 2.51864 22.0386C2.56318 22.1078 2.61267 22.1722 2.69186 22.2068C2.65721 22.3355 2.75125 22.4345 2.84528 22.5038C2.81558 22.385 2.79579 22.2563 2.97395 22.3206C3.10263 22.3701 3.20656 22.38 3.26595 22.3157C3.2709 22.4295 3.28079 22.8848 3.28079 22.8848C3.29069 23.0581 3.05809 22.9739 2.90962 22.87C2.96406 23.0828 3.07788 23.2362 3.34018 23.2956C3.27585 23.3006 3.20656 23.3402 3.20656 23.4589C3.20656 23.6173 3.33523 23.8351 3.41937 23.9142C3.5035 23.8895 3.62723 23.7559 3.62723 23.5926C3.62723 23.4738 3.55794 23.3946 3.4936 23.3451C3.7559 23.454 3.86973 23.3748 3.92417 23.1966C3.7757 23.2065 3.54804 23.1422 3.55299 22.9739C3.55299 22.9739 3.56289 22.5236 3.56784 22.4147C3.62723 22.5186 3.73116 22.573 3.85983 22.6077C4.038 22.6572 4.0182 22.771 3.98851 22.87C4.08254 22.8601 4.17657 22.8254 4.14193 22.672C4.22112 22.6918 4.27061 22.6621 4.31515 22.6176C4.26071 22.5434 4.20132 22.4988 4.14193 22.4741C4.16173 22.385 4.09739 22.2811 3.98851 22.2019C4.02315 22.3058 4.03305 22.4592 3.85983 22.4147C3.7856 22.3949 3.73611 22.3206 3.73611 22.2266C3.73611 22.0781 3.89448 22.0039 4.0479 22.0435C4.18152 22.0831 4.40918 22.2217 4.40918 22.4741ZM4.34484 21.019C4.38443 21.118 4.40918 21.2121 4.40918 21.316C4.40918 21.5684 4.18152 21.603 4.05285 21.5684C3.89943 21.5288 3.74106 21.3605 3.74106 21.2121C3.74106 21.118 3.79055 21.0735 3.86478 21.0933C4.038 21.1428 4.0281 21.2912 3.99346 21.3754C4.10234 21.3556 4.16668 21.2813 4.14688 21.1824C4.20627 21.1923 4.26566 21.1725 4.3201 21.123C4.27556 21.0586 4.22606 21.0042 4.14688 20.9844C4.18152 20.8508 4.08749 20.7617 3.99346 20.7023C4.02315 20.8161 4.04295 20.9448 3.86478 20.8953C3.73611 20.8607 3.63218 20.8508 3.57279 20.9201C3.56784 20.8062 3.55794 20.3509 3.55794 20.3509C3.55299 20.1777 3.78065 20.2519 3.92912 20.346C3.87468 20.1332 3.76085 19.9995 3.49855 19.9451C3.56289 19.9402 3.62723 19.9006 3.62723 19.7818C3.62723 19.6234 3.48866 19.4057 3.40452 19.3265C3.32039 19.3512 3.17192 19.4799 3.17192 19.6383C3.17192 19.757 3.2412 19.8412 3.30554 19.8857C3.04324 19.7719 2.92941 19.8313 2.87497 20.0094C3.02344 20.0144 3.25605 20.0886 3.24615 20.2519C3.24615 20.2519 3.23625 20.6974 3.2313 20.8112C3.17192 20.7073 3.06799 20.6479 2.93931 20.5984C2.76114 20.534 2.78094 20.4202 2.81063 20.3212C2.7166 20.3212 2.62257 20.341 2.65721 20.5043C2.57803 20.4746 2.52359 20.4944 2.484 20.534C2.53844 20.6231 2.59288 20.6776 2.65721 20.7073C2.63742 20.7914 2.70176 20.9052 2.81063 20.9992C2.77599 20.8904 2.76609 20.7369 2.93931 20.8013C3.01355 20.826 3.06304 20.9003 3.06304 20.9992C3.06304 21.1477 2.90467 21.2121 2.75125 21.1527C2.62257 21.1032 2.39491 20.925 2.39491 20.6726C2.39491 20.5736 2.41966 20.4895 2.45925 20.4202C2.64732 20.0936 3.25605 19.0048 3.38472 18.7672C3.39462 18.7524 3.39462 18.7326 3.39957 18.7177C3.40452 18.7375 3.40452 18.7573 3.41442 18.7771C3.54804 19.0889 4.15678 20.5687 4.34484 21.019ZM3.79055 18.01C3.7955 18.015 3.80539 18.0199 3.81034 18.0199C3.80539 18.0199 3.7955 18.0199 3.79055 18.0199C3.59753 17.9853 3.45896 18.0942 3.41937 18.1585C3.41442 18.1733 3.40947 18.1882 3.40452 18.203C3.39957 18.1882 3.39462 18.1634 3.38967 18.1535C3.35008 18.0645 3.21151 17.8665 3.01849 17.7774C3.01355 17.7725 3.00365 17.7675 2.9987 17.7626C2.91456 17.7032 2.80569 17.6487 2.68691 17.5992C2.81558 17.6487 2.93931 17.7081 3.02839 17.7725H3.04819C3.2412 17.822 3.37978 17.7081 3.41937 17.6438C3.45896 17.7378 3.59259 17.9358 3.79055 18.01ZM3.41937 17.045C3.29069 16.7332 2.68196 15.2089 2.49389 14.7139C2.4543 14.61 2.42956 14.5061 2.42956 14.4071C2.42956 14.1547 2.65721 14.1597 2.78589 14.2091C2.93931 14.2685 3.09768 14.4418 3.09768 14.5902C3.09768 14.6843 3.04819 14.7238 2.97395 14.6991C2.80074 14.6348 2.81063 14.4863 2.84528 14.4071C2.7364 14.417 2.67206 14.4813 2.69186 14.5803C2.63247 14.5655 2.57308 14.5704 2.51864 14.61C2.56318 14.6793 2.61267 14.7436 2.69186 14.7783C2.65721 14.907 2.75125 15.0059 2.84528 15.0752C2.81558 14.9565 2.79579 14.8278 2.97395 14.8921C3.10263 14.9367 3.20656 14.9515 3.26595 14.8872C3.2709 15.001 3.28079 15.4563 3.28079 15.4563C3.29069 15.6295 3.05809 15.5454 2.90962 15.4415C2.96406 15.6543 3.07788 15.8077 3.34018 15.8671C3.27585 15.872 3.20656 15.9116 3.20656 16.0304C3.20656 16.1888 3.33523 16.4065 3.41937 16.4857C3.5035 16.456 3.62723 16.3174 3.62723 16.1591C3.62723 16.0403 3.55794 15.9611 3.4936 15.9116C3.7559 16.0205 3.86973 15.9463 3.92417 15.7631C3.7757 15.773 3.54804 15.7087 3.55299 15.5404C3.55299 15.5404 3.56289 15.095 3.56784 14.9812C3.62723 15.0851 3.73116 15.1396 3.85983 15.1742C4.038 15.2237 4.0182 15.3375 3.98851 15.4365C4.08254 15.4266 4.17657 15.392 4.14193 15.2385C4.22112 15.2583 4.27061 15.2286 4.31515 15.1841C4.26071 15.1099 4.20132 15.0653 4.14193 15.0406C4.16173 14.9515 4.09739 14.8476 3.98851 14.7684C4.02315 14.8723 4.03305 15.0257 3.85983 14.9812C3.7856 14.9614 3.73611 14.8872 3.73611 14.7931C3.73611 14.6447 3.89448 14.5704 4.0479 14.61C4.17657 14.6447 4.40423 14.7832 4.40423 15.0356C4.40423 15.1346 4.37949 15.2237 4.33989 15.3029C4.15678 15.679 3.54804 16.8173 3.41937 17.045Z" fill="#FFCA00"/>
<path d="M12.5652 19.4898C12.7483 19.663 11.9219 19.2621 11.8971 19.465C11.8773 19.6383 12.298 19.8758 12.5504 19.96C12.8028 20.0441 12.882 19.9798 12.9562 20.0886C13.0106 20.1728 12.486 20.1431 12.5009 20.2519C12.5306 20.4747 13.0799 20.2965 13.1641 20.3757C13.2482 20.4598 12.7879 20.4895 12.8077 20.5736C12.8424 20.7172 13.3026 20.6231 13.3125 20.6875C13.3224 20.7518 13.0205 20.7815 13.0403 20.9003C13.0552 21.0042 13.5155 20.8656 13.6243 20.9102C13.7382 20.9547 13.2136 21.024 13.6194 21.123C14.0252 21.222 14.4904 21.3259 15.1189 21.2715C15.7524 21.217 16.0741 20.9844 16.0989 20.9349C16.1236 20.8854 15.797 21.0537 15.3466 21.0982C14.8962 21.1428 14.2974 21.024 14.0499 20.9448C13.9708 20.9201 14.2875 20.7419 14.2232 20.6776C14.1588 20.6083 13.9015 20.7765 13.8025 20.6776C13.7382 20.6132 13.9213 20.5637 13.9163 20.5142C13.9114 20.4697 13.5649 20.4796 13.5006 20.4054C13.4412 20.3361 13.659 20.2915 13.6639 20.2322C13.6689 20.1876 13.4462 20.1728 13.4313 20.1183C13.4165 20.0639 13.6837 20.0094 13.555 19.9748C13.4214 19.9352 13.0601 19.9303 12.9909 19.8164C12.9216 19.7076 13.268 19.7669 13.1789 19.668C13.1195 19.6036 12.7879 19.5393 12.7187 19.3611C12.6692 19.2423 12.9513 19.2869 12.9562 19.2027C12.9612 19.0691 12.7879 19.1978 12.7335 18.8316C12.7137 18.7128 12.9562 18.7375 12.9562 18.7375C12.9661 18.7128 12.976 18.688 12.9909 18.6633C12.9909 18.6633 13.2729 18.7524 13.6342 19.079C14.0005 19.4057 14.0994 19.7768 14.4459 19.9699C14.6092 20.0639 14.6141 19.8709 14.9853 19.9995C15.3565 20.1282 15.5099 20.247 15.9009 20.4648C15.9553 20.4945 16.2077 20.3311 16.955 20.2717C17.3559 20.2371 17.4401 20.4301 17.4401 20.4301C17.4401 20.4351 17.6628 20.2322 17.7716 20.0391C17.8162 19.9649 17.8558 20.0144 17.8706 19.9995C17.9152 19.9501 17.8657 19.9154 17.8657 19.9105C15.0051 20.7518 12.9958 18.9899 12.8127 16.7233C12.8127 16.7233 12.6989 16.7084 12.684 16.8124C12.6494 17.0648 12.7483 17.7824 12.7137 17.7428C12.6444 17.6685 12.1198 16.3867 12.0258 16.555C11.8971 16.7876 12.6098 18.2179 12.5702 18.2773C12.4267 18.4851 11.6101 16.9361 11.5457 17.0747C11.2983 17.6141 12.5553 18.9108 12.5454 18.9751C12.5157 19.1929 11.5903 18.3416 11.5111 18.4703C11.328 18.7623 12.5009 19.4354 12.5652 19.4898Z" fill="#FFCA00"/>
<path d="M19.687 20.341C19.6969 20.4449 19.6177 20.5687 19.5336 20.6132C19.4692 20.6478 19.4989 20.6874 19.4791 20.7369C19.3851 20.7567 19.296 20.7765 19.202 20.7963C18.7615 21.1527 18.2072 21.3853 17.544 21.4991C17.544 21.4991 17.4055 21.6426 17.2817 21.7911C17.158 21.9346 17.0739 21.9841 17.0442 22.0781C17.0194 22.1722 17.1085 22.1969 17.2273 22.1672C17.3411 22.1375 17.4896 21.989 17.4896 21.989C17.4896 21.989 17.5094 22.0732 17.6133 22.0484C17.7173 22.0286 17.9103 21.9 17.9103 21.9C17.9103 21.9 18.0736 21.9247 18.1924 21.8802C18.3161 21.8307 18.42 21.7267 18.42 21.7218C18.42 21.7218 18.4547 21.8554 18.5734 21.8257C18.6972 21.796 18.8852 21.5882 18.8852 21.5882C18.8852 21.5882 18.9743 21.6674 19.0881 21.6278C19.202 21.5832 19.3406 21.415 19.3406 21.415C19.3406 21.415 19.4791 21.4397 19.6127 21.3655C19.7464 21.2962 19.8701 21.1279 19.8701 21.1279C19.8701 21.1279 19.9839 21.1972 20.0928 21.1378C20.1967 21.0784 20.266 20.9151 20.266 20.9151C20.266 20.9151 20.5481 20.9596 20.7362 20.831C20.8698 20.7369 20.8352 20.539 20.8352 20.539C20.8352 20.534 21.6122 20.4895 21.5775 19.9896C21.5726 19.9302 20.3304 20.2123 19.781 20.2519C19.6771 20.2618 19.687 20.341 19.687 20.341Z" fill="#FFCA00"/>
<path d="M18.4843 19.7372C17.9943 19.9402 17.8359 20.2173 17.3014 20.6726C17.1183 20.826 16.8412 20.9547 16.6036 21.1576C16.3611 21.3605 16.1928 21.6129 16.1137 21.7614C16.0741 21.8356 16.1285 21.994 16.1829 22.0039C16.2324 22.0089 16.2324 21.8554 16.2869 21.8159C16.3413 21.7713 16.3413 21.8554 16.4106 21.8307C16.4749 21.806 16.5541 21.7218 16.5541 21.7218C16.5541 21.7218 17.8854 21.3358 18.4595 21.1675C18.5634 21.1378 18.7317 21.0487 18.8059 20.9547C18.7861 20.9003 18.6278 20.9745 18.5337 21.0042C18.1279 21.0834 17.6033 21.2616 17.2272 21.3457C17.2272 21.3457 17.1629 21.3605 17.1728 21.2962C17.1728 21.2665 17.4153 20.9448 17.4153 20.9448C17.3509 20.9646 17.2915 20.9795 17.2272 20.9993C17.2272 20.9993 17.1134 21.0933 17.0589 21.118C17.0045 21.1428 16.9797 21.1081 17.0045 21.0883C17.2915 20.7864 18.1477 20.1579 18.1477 20.1629C18.1477 20.1629 18.3704 20.0144 18.7713 19.8214C19.5186 19.465 19.7809 19.4552 19.8353 19.3958C20.4292 18.5891 20.8647 18.4406 21.2953 18.1832C21.6368 17.8269 21.7506 17.3914 22.1119 16.9064C22.4732 16.4214 22.691 16.357 22.691 16.357C22.7058 16.3867 22.7256 16.4164 22.7404 16.4412C22.7404 16.4412 22.9335 16.263 22.9236 16.3917C22.9087 16.5798 22.7553 16.7827 22.7602 16.9113C22.7652 16.9955 23.0275 16.8371 23.0027 16.9163C22.9434 17.1192 22.7305 17.2726 22.6712 17.3617C22.5821 17.4953 22.9087 17.2825 22.8444 17.4211C22.7751 17.5597 22.4435 17.7378 22.3148 17.8467C22.2356 17.911 22.399 17.8962 22.3841 17.9556C22.3693 18.015 22.0228 18.1981 22.0278 18.2426C22.0377 18.302 22.1218 18.2921 22.0822 18.3416C22.008 18.4307 21.7259 18.495 21.7209 18.5445C21.716 18.594 21.7803 18.6336 21.716 18.7276C21.617 18.8712 21.5378 18.7623 21.4982 18.8712C21.4735 18.9355 21.6615 19.0147 21.5329 19.0642C21.3597 19.1285 21.231 19.2275 21.0825 19.3512C21.0281 19.3958 20.7757 19.4997 20.6272 19.569C20.5332 19.6135 19.9987 19.8065 20.0234 19.8412C20.0432 19.8808 20.3797 19.7867 21.0875 19.5145C21.3943 19.3958 21.5675 19.3215 22.0476 19.084C22.592 18.8167 21.909 18.9256 22.0179 18.8316C22.1317 18.7375 22.6068 18.693 22.6217 18.5891C22.6415 18.4604 22.3594 18.5445 22.3643 18.4752C22.3693 18.4109 22.9384 18.3218 22.973 18.1733C22.9928 18.0843 22.6464 18.1931 22.7305 18.0793C22.8147 17.9605 23.27 17.8814 23.2848 17.6834C23.2947 17.5646 22.9137 17.7576 22.9631 17.6537C22.9829 17.6141 23.1364 17.5498 23.2898 17.426C23.5273 17.2281 23.9084 16.9064 23.8837 16.7431C23.8589 16.5402 23.0968 17.2974 23.1611 17.0351C23.1859 16.9311 24.4033 15.8473 24.2004 15.6394C24.0668 15.486 23.1958 16.6144 23.171 16.4164C23.1611 16.3372 24.5271 14.6645 24.2746 14.2141C24.2103 14.0854 23.1859 16.1541 23.0374 16.0156C22.9978 15.9661 23.9134 13.9666 23.7698 13.7984C23.7006 13.7142 23.557 14.0409 23.3987 14.4121C23.2403 14.7783 23.072 15.1891 23.0374 15.2386C23.0027 15.293 23.077 14.4912 23.0423 14.2537C23.0275 14.1547 22.9137 14.2141 22.9137 14.2141C22.7503 16.6639 20.3748 18.9157 18.4843 19.7372ZM16.7323 21.4249C16.6828 21.4496 16.6234 21.4793 16.6234 21.4496C16.6185 21.4199 16.6482 21.3902 16.6976 21.3655C16.7471 21.3407 16.8065 21.3061 16.8115 21.3358C16.8115 21.3655 16.7768 21.4001 16.7323 21.4249Z" fill="#FFCA00"/>
<path d="M18.5238 11.2694C18.6921 11.2546 18.7712 11.1407 18.796 11.0121C18.8306 10.8388 18.7564 10.0173 18.7564 10.0222C18.7564 10.0222 18.3704 10.8735 18.3357 11.0467C18.3159 11.1754 18.3555 11.2793 18.5238 11.2694Z" fill="#FFCA00"/>
<path d="M19.1278 11.2892C19.2862 11.309 19.3852 11.21 19.4347 11.0813C19.499 10.9081 19.5931 10.0519 19.5931 10.0519C19.5931 10.0519 19.0685 10.8438 19.0041 11.017C18.9546 11.1506 18.9744 11.2645 19.1278 11.2892Z" fill="#FFCA00"/>
<path d="M19.6869 11.4476C19.8305 11.507 19.9393 11.4228 20.0136 11.2991C20.1076 11.1358 20.36 10.2747 20.36 10.2747C20.36 10.2747 19.7166 10.9675 19.6226 11.1358C19.5533 11.2595 19.5484 11.3882 19.6869 11.4476Z" fill="#FFCA00"/>
<path d="M20.1772 11.7297C20.301 11.8187 20.4197 11.7593 20.5088 11.6505C20.6276 11.502 21.0334 10.6805 21.0334 10.6805C21.0334 10.6755 20.296 11.2496 20.1772 11.3981C20.0931 11.5069 20.0584 11.6356 20.1772 11.7297Z" fill="#FFCA00"/>
<path d="M20.5829 12.1256C20.6769 12.2444 20.8006 12.2097 20.9095 12.1157C21.053 11.987 21.5925 11.2397 21.5925 11.2397C21.5925 11.2348 20.7907 11.6554 20.6522 11.7841C20.5433 11.8782 20.4889 12.0068 20.5829 12.1256Z" fill="#FFCA00"/>
<path d="M20.8797 12.6155C20.949 12.7541 21.0678 12.7492 21.1865 12.6749C21.3449 12.5759 21.9982 11.9276 21.9982 11.9276C21.9982 11.9227 21.1618 12.18 21.0084 12.284C20.8896 12.3582 20.8154 12.477 20.8797 12.6155Z" fill="#FFCA00"/>
<path d="M21.2507 12.8729C21.127 12.9224 21.033 13.0263 21.0626 13.1847C21.0973 13.343 21.2161 13.3579 21.3398 13.3084C21.5081 13.2391 22.2504 12.7145 22.2504 12.7195C22.2504 12.7195 21.414 12.7986 21.2507 12.8729Z" fill="#FFCA00"/>
<path d="M21.1274 13.8033C21.1274 13.9716 21.2363 14.0112 21.36 13.9864C21.5283 13.9468 22.335 13.5707 22.335 13.5757C22.335 13.5707 21.5283 13.4866 21.36 13.5212C21.2363 13.546 21.1274 13.635 21.1274 13.8033Z" fill="#FFCA00"/>
<path d="M22.2506 14.4566C22.2506 14.4516 21.5033 14.2042 21.34 14.2091C21.2163 14.2091 21.0975 14.2735 21.0629 14.4516C21.0332 14.6248 21.1223 14.6892 21.2509 14.6892C21.4142 14.6793 22.2506 14.4516 22.2506 14.4566Z" fill="#FFCA00"/>
<path d="M20.8797 15.095C20.8154 15.2682 20.8896 15.3474 21.0084 15.3721C21.1667 15.4018 21.9982 15.3326 21.9982 15.3326C21.9982 15.3326 21.3449 14.9317 21.1865 14.902C21.0678 14.8822 20.944 14.9218 20.8797 15.095Z" fill="#FFCA00"/>
<path d="M20.5826 15.7186C20.4886 15.8819 20.543 15.9809 20.647 16.0304C20.7855 16.0898 21.5873 16.1789 21.5873 16.1789C21.5873 16.1789 21.0478 15.6444 20.9043 15.585C20.8004 15.5404 20.6767 15.5602 20.5826 15.7186Z" fill="#FFCA00"/>
<path d="M20.5086 16.2284C20.4195 16.1591 20.2958 16.1541 20.177 16.3026C20.0582 16.4511 20.0879 16.5649 20.177 16.6342C20.2958 16.7233 21.0332 16.9658 21.0332 16.9658C21.0332 16.9658 20.6323 16.3224 20.5086 16.2284Z" fill="#FFCA00"/>
<path d="M20.36 17.6735C20.36 17.6735 20.1027 16.9361 20.0136 16.8173C19.9443 16.7282 19.8305 16.7035 19.6869 16.8322C19.5484 16.9658 19.5533 17.0846 19.6226 17.1737C19.7216 17.2825 20.36 17.6686 20.36 17.6735Z" fill="#FFCA00"/>
<path d="M19.1278 17.2726C18.9744 17.3815 18.9546 17.5052 19.0041 17.6091C19.0685 17.7477 19.5931 18.2674 19.5931 18.2674C19.5931 18.2674 19.499 17.4557 19.4347 17.3171C19.3852 17.2132 19.2862 17.1637 19.1278 17.2726Z" fill="#FFCA00"/>
<path d="M16.1534 18.1288C16.2227 18.0051 16.2326 17.8764 16.0891 17.822C15.9456 17.7725 15.8367 17.8566 15.7624 17.9803C15.6684 18.1486 15.416 19.0196 15.416 19.0196C15.421 19.0196 16.0594 18.2971 16.1534 18.1288Z" fill="#FFCA00"/>
<path d="M15.6042 17.5596C15.4855 17.4755 15.3617 17.5398 15.2726 17.6537C15.1539 17.8071 14.748 18.6534 14.748 18.6534C14.748 18.6534 15.4805 18.0397 15.6042 17.8863C15.6884 17.7725 15.723 17.6438 15.6042 17.5596Z" fill="#FFCA00"/>
<path d="M15.1981 17.1835C15.1041 17.0697 14.9803 17.1093 14.8714 17.2132C14.7329 17.3468 14.1885 18.1337 14.1885 18.1337C14.1885 18.1337 14.9902 17.6636 15.1288 17.525C15.2377 17.426 15.2921 17.2973 15.1981 17.1835Z" fill="#FFCA00"/>
<path d="M14.9012 16.7035C14.8319 16.5649 14.7131 16.5798 14.5944 16.6639C14.436 16.7728 13.7827 17.4706 13.7827 17.4706C13.7827 17.4706 14.6191 17.1538 14.7725 17.045C14.8913 16.9658 14.9655 16.8421 14.9012 16.7035Z" fill="#FFCA00"/>
<path d="M14.718 16.1492C14.6834 15.9958 14.5646 15.9809 14.4409 16.0403C14.2726 16.1195 13.5303 16.7035 13.5303 16.6985C13.5303 16.6985 14.3667 16.5501 14.5349 16.4709C14.6537 16.4164 14.7477 16.3076 14.718 16.1492Z" fill="#FFCA00"/>
<path d="M14.6539 15.5355C14.6539 15.3672 14.545 15.3326 14.4213 15.3672C14.253 15.4167 13.4463 15.8572 13.4463 15.8572C13.4463 15.8572 14.253 15.8819 14.4213 15.8324C14.545 15.7978 14.6539 15.7038 14.6539 15.5355Z" fill="#FFCA00"/>
<path d="M14.718 14.8871C14.7477 14.7139 14.6587 14.6545 14.5349 14.6644C14.3667 14.6793 13.5303 14.9713 13.5303 14.9663C13.5303 14.9663 14.2776 15.1593 14.4409 15.1445C14.5646 15.1346 14.6834 15.0604 14.718 14.8871Z" fill="#FFCA00"/>
<path d="M14.9012 14.2289C14.9655 14.0557 14.8913 13.9765 14.7725 13.9617C14.6142 13.9419 13.7827 14.0705 13.7827 14.0705C13.7827 14.0705 14.4409 14.4219 14.5944 14.4417C14.7131 14.4516 14.8369 14.4021 14.9012 14.2289Z" fill="#FFCA00"/>
<path d="M14.8768 13.739C14.9807 13.7786 15.1094 13.7538 15.2034 13.5856C15.2975 13.4173 15.243 13.3183 15.1391 13.2787C15.0005 13.2243 14.1988 13.1896 14.1988 13.1896C14.1938 13.1896 14.7333 13.6845 14.8768 13.739Z" fill="#FFCA00"/>
<path d="M15.6042 12.9818C15.723 12.8284 15.6933 12.7145 15.6042 12.6502C15.4855 12.5661 14.748 12.3632 14.748 12.3632C14.748 12.3632 15.1539 12.9867 15.2726 13.0709C15.3617 13.1402 15.4805 13.1352 15.6042 12.9818Z" fill="#FFCA00"/>
<path d="M20.7365 13.8924C20.7365 12.3137 19.4596 11.3239 17.8858 11.7742C16.312 12.2196 15.0352 13.8627 15.0352 15.4316C15.0352 17.0103 16.312 17.916 17.8858 17.4706C19.4596 17.0252 20.7365 15.4613 20.7365 13.8924Z" fill="#FFCA00"/>
<path d="M17.8903 11.3832C18.0586 11.3337 18.1229 11.21 18.1229 11.0813C18.1229 10.9131 17.8903 10.1707 17.8903 10.1707C17.8903 10.1707 17.6577 11.0417 17.6577 11.21C17.6577 11.3387 17.7221 11.4278 17.8903 11.3832Z" fill="#FFCA00"/>
<path d="M18.524 17.6191C18.3606 17.6982 18.3161 17.8269 18.3408 17.9457C18.3755 18.1041 18.7615 18.7425 18.7615 18.7425C18.7615 18.7425 18.8308 17.8863 18.8011 17.7279C18.7714 17.6092 18.6873 17.5399 18.524 17.6191Z" fill="#FFCA00"/>
<path d="M18.1229 18.0249C18.1229 17.8962 18.0586 17.8071 17.8903 17.8566C17.7221 17.9061 17.6577 18.0298 17.6577 18.1585C17.6577 18.3268 17.8903 19.0691 17.8903 19.0691C17.8903 19.0642 18.1229 18.1931 18.1229 18.0249Z" fill="#FFCA00"/>
<path d="M16.9848 18.2327C16.9502 18.4059 17.0244 19.2225 17.0244 19.2225C17.0244 19.2225 17.4104 18.3663 17.4451 18.1931C17.4698 18.0595 17.4302 17.9556 17.2619 17.9704C17.0937 17.9853 17.0095 18.0991 16.9848 18.2327Z" fill="#FFCA00"/>
<path d="M16.6532 17.9605C16.4948 17.9407 16.3958 18.0446 16.3464 18.1783C16.282 18.3515 16.188 19.2126 16.188 19.2126C16.188 19.2126 16.7126 18.4059 16.7769 18.2327C16.8264 18.0991 16.8066 17.9803 16.6532 17.9605Z" fill="#FFCA00"/>
<path d="M16.094 12.4374C16.2325 12.3038 16.2276 12.18 16.1583 12.0959C16.0643 11.9821 15.4209 11.6257 15.4209 11.6257C15.4209 11.6257 15.6782 12.3532 15.7673 12.4671C15.8366 12.5512 15.9504 12.576 16.094 12.4374Z" fill="#FFCA00"/>
<path d="M16.6532 11.9771C16.8066 11.8682 16.8264 11.7396 16.7769 11.6356C16.7126 11.4971 16.188 10.9922 16.188 10.9922C16.188 10.9922 16.282 11.7989 16.3464 11.9375C16.3958 12.0414 16.4948 12.086 16.6532 11.9771Z" fill="#FFCA00"/>
<path d="M17.2572 11.6208C17.4205 11.5367 17.4651 11.4129 17.4403 11.2942C17.4057 11.1358 17.0246 10.5023 17.0196 10.5023C17.0196 10.5023 16.9504 11.3585 16.9801 11.5169C17.0097 11.6307 17.0939 11.7 17.2572 11.6208Z" fill="#FFCA00"/>
</g>
<defs>
<clipPath id="clip0_167_57">
<rect width="31.674" height="31.674" fill="white" transform="translate(0.657715 0.881348)"/>
</clipPath>
</defs>
</svg>
