<svg width="393" height="744" viewBox="0 0 393 744" fill="none" xmlns="http://www.w3.org/2000/svg">
<path d="M9.55341 51.7772L321.361 371.649L9.55343 691.521C3.97073 697.236 0.845244 704.908 0.845244 712.897C0.845244 720.886 3.97073 728.558 9.55344 734.273C12.2647 737.04 15.5009 739.239 19.0725 740.74C22.6441 742.24 26.4793 743.013 30.3534 743.013C34.2275 743.013 38.0627 742.24 41.6343 740.74C45.2059 739.239 48.4421 737.04 51.1534 734.273L382.929 393.985C388.754 388.009 392.014 379.994 392.014 371.649C392.014 363.304 388.754 355.289 382.929 349.313L51.2174 9.02514C48.5041 6.23836 45.2599 4.02339 41.6765 2.51098C38.093 0.998574 34.2429 0.21942 30.3534 0.21942C26.4639 0.21942 22.6137 0.998575 19.0303 2.51099C15.4469 4.0234 12.2027 6.23837 9.48938 9.02515C3.90667 14.74 0.781219 22.4121 0.781219 30.4012C0.781219 38.3903 3.90667 46.0623 9.48938 51.7772L9.55341 51.7772Z" fill="black"/>
</svg>
