<svg width="743" height="392" viewBox="0 0 743 392" fill="none" xmlns="http://www.w3.org/2000/svg">
<path d="M691.236 8.77219L371.364 320.58L51.4922 8.77219C45.7774 3.18948 38.1053 0.0639954 30.1162 0.0639954C22.1271 0.0639954 14.4551 3.18948 8.74025 8.77219C5.97303 11.4835 3.77463 14.7197 2.27383 18.2913C0.773035 21.8629 0 25.6981 0 29.5722C0 33.4463 0.773035 37.2814 2.27383 40.853C3.77463 44.4246 5.97303 47.6609 8.74025 50.3722L349.028 382.148C355.004 387.973 363.019 391.233 371.364 391.233C379.709 391.233 387.724 387.973 393.7 382.148L733.988 50.4362C736.775 47.7228 738.99 44.4787 740.502 40.8952C742.015 37.3118 742.794 33.4617 742.794 29.5722C742.794 25.6826 742.015 21.8325 740.502 18.2491C738.99 14.6656 736.775 11.4215 733.988 8.70816C728.273 3.12546 720.601 0 712.612 0C704.623 0 696.951 3.12546 691.236 8.70816V8.77219Z" fill="black"/>
</svg>
