<svg width="170" height="72" viewBox="0 0 170 72" fill="none" xmlns="http://www.w3.org/2000/svg">
<path d="M31.1278 10.0645L23.0547 17.8064H13.8949H4.65747V20.129V22.4516H13.8173H22.8995L31.0502 14.3226L39.2009 6.19354H85.8538H132.507L140.425 14.3226L148.342 22.4516H157.269H166.196L165.963 20.2839L165.731 18.1935L156.726 17.9613L147.799 17.729L140.58 10.0645L133.438 2.32258H86.3196L39.2009 2.4L31.1278 10.0645Z" fill="#891F7F"/>
<path d="M41.1416 23.1484C39.589 23.4581 37.9589 23.9226 37.4932 24.2323C36.3288 25.0065 37.1826 28.0258 38.5023 27.5613C41.8402 26.3226 45.1781 26.2452 46.9635 27.4065C50.7671 29.8839 48.2055 34.8387 43.0822 34.8387C40.6758 34.8387 40.3653 35.071 40.3653 36.7742C40.3653 38.4774 40.6758 38.7097 43.3151 38.7097C49.2146 38.7097 51.6986 43.2 47.6621 46.3742C45.3333 48.2323 43.3151 48.3871 39.589 47.1484C37.0274 46.2194 35.7854 46.9161 35.7078 49.3161C35.7078 50.7097 42.9269 51.9484 46.9635 51.1742C56.2009 49.471 57.9087 39.4839 49.3699 37.1613C48.0502 36.7742 48.2055 36.4645 50.6119 35.071C53.6393 33.2903 54.726 30.5807 53.5616 27.5613C52.1644 23.9226 46.8082 21.9871 41.1416 23.1484Z" fill="#891F7F"/>
<path d="M66.3699 22.8387C65.9817 22.9935 64.6621 23.3032 63.4977 23.5355C62.1004 23.8452 61.3242 24.5419 61.3242 25.471C61.3242 27.4839 61.9452 27.7936 64.5068 26.9419C69.3196 25.3161 75.452 28.2581 76.5388 32.671L77.0046 34.8387H70.7169C64.5068 34.8387 64.4292 34.8387 64.4292 36.7742C64.4292 38.7097 64.5068 38.7097 70.6393 38.7097C76.2283 38.7097 76.8493 38.8645 76.8493 40.1806C76.8493 42.5032 73.1233 46.3742 69.9406 47.3032C67.9224 47.9226 66.2146 47.9226 64.274 47.3806C61.7123 46.6839 61.4018 46.7613 61.0137 48.2323C60.4703 50.4774 60.8584 50.7871 64.4292 51.4065C71.726 52.5677 77.6256 49.8581 80.5753 44.129C84.1461 37.0065 81.6621 27.6387 75.2968 24.3871C73.2009 23.3806 67.6895 22.3742 66.3699 22.8387Z" fill="#891F7F"/>
<path d="M91.4428 22.9936L89.2693 23.3032V37.6258V51.871H91.9862H94.7031V46.529V41.2645L98.4291 40.7226C103.63 40.0258 106.89 37.8581 107.822 34.3742C110.151 25.8581 103.475 21.2129 91.4428 22.9936ZM101.534 27.5613C102.699 28.3355 103.242 29.4968 103.242 31.2774C103.242 34.8387 101.767 36.3871 97.9634 36.929L94.7031 37.3936V31.8194V26.3226H97.2647C98.662 26.3226 100.603 26.8645 101.534 27.5613Z" fill="#891F7F"/>
<path d="M124.278 23.6129C117.835 25.6258 114.653 30.271 114.653 37.5484C114.653 45.2903 117.991 49.5484 125.443 51.0968C129.246 51.871 136.077 51.2516 135.922 50.0903C135.845 49.7806 135.845 48.8516 135.845 48.0774C135.845 46.7613 135.534 46.6839 132.972 47.3032C123.425 49.3936 116.826 41.1871 120.708 32.0516C122.26 28.2581 127.772 25.7807 132.429 26.8645C135.612 27.5613 135.689 27.5613 136.077 25.6258C136.31 24.5419 136.466 23.5355 136.388 23.4581C136.31 23.4581 134.292 23.1484 131.963 22.9161C129.246 22.6839 126.452 22.9161 124.278 23.6129Z" fill="#891F7F"/>
<path d="M4.65747 51.0968V53.4194H13.8173H22.8995L30.662 61.1613L38.4246 68.9032H85.7762H133.128L140.89 61.1613L148.653 53.4194H157.347H166.119V51.0968V48.7742H157.269H148.342L140.347 57.2903L132.352 65.8065H86.1643H39.8995L31.4383 57.2903L22.8995 48.7742H13.8173H4.65747V51.0968Z" fill="#891F7F"/>
</svg>
