<svg width="510" height="142" viewBox="0 0 510 142" fill="none" xmlns="http://www.w3.org/2000/svg">
<path d="M86.5409 68.3631C94.175 71.0977 100.12 75.3948 104.375 81.2545C108.755 86.9839 110.945 93.69 110.945 101.373C110.945 109.707 108.317 116.934 103.061 123.054C97.8044 129.174 90.6708 133.862 81.6601 137.117C72.7745 140.372 63.0128 142 52.3751 142C43.3643 142 34.3535 140.828 25.3428 138.484C16.4572 136.14 8.00957 132.559 0 127.741L9.38622 105.084C15.1431 108.73 21.4631 111.53 28.3464 113.483C35.3547 115.306 42.1754 116.217 48.8083 116.217C57.8191 116.217 65.2655 114.525 71.1475 111.139C77.1547 107.753 80.1583 103 80.1583 96.8803C80.1583 91.8019 78.0933 87.9606 73.9634 85.3563C69.9586 82.7519 64.452 81.4498 57.4436 81.4498H25.3428V57.6204H55.1909C61.3233 57.6204 66.079 56.3182 69.458 53.7139C72.9622 51.1096 74.7143 47.5287 74.7143 42.9711C74.7143 37.6323 72.2113 33.4654 67.2053 30.4704C62.3245 27.4755 56.0044 25.978 48.2452 25.978C42.4883 25.978 36.5437 26.8244 30.4113 28.5172C24.279 30.0798 18.4596 32.4888 12.953 35.7442L3.75449 11.1334C17.6461 3.71114 32.664 0 48.8083 0C59.0706 0 68.5194 1.56258 77.1547 4.68776C85.79 7.81293 92.6732 12.3705 97.8044 18.3604C102.936 24.3503 105.501 31.3168 105.501 39.26C105.501 45.7707 103.812 51.5653 100.433 56.6437C97.0535 61.7221 92.4229 65.6286 86.5409 68.3631Z" fill="white"/>
<path d="M173.316 0.585974C186.332 0.585974 197.971 3.64604 208.233 9.76616C218.621 15.7561 226.755 24.155 232.637 34.9629C238.519 45.6405 241.46 57.7506 241.46 71.293C241.46 84.8354 238.519 97.0105 232.637 107.818C226.755 118.496 218.621 126.895 208.233 133.015C197.971 139.005 186.332 142 173.316 142C161.678 142 151.165 139.917 141.779 135.75C132.518 131.583 124.758 125.528 118.501 117.585L137.837 98.8336C147.098 109.641 158.424 115.045 171.815 115.045C181.451 115.045 189.586 112.116 196.219 106.256C202.977 100.396 207.357 92.5181 209.36 82.6217H156.046V58.4016H208.984C206.857 49.0261 202.476 41.5387 195.843 35.9395C189.21 30.3402 181.201 27.5406 171.815 27.5406C158.424 27.5406 147.098 32.9445 137.837 43.7524L118.501 25.0014C124.758 17.0582 132.518 11.0032 141.779 6.83632C151.165 2.66942 161.678 0.585974 173.316 0.585974Z" fill="white"/>
<path d="M318.402 2.92985C330.041 2.92985 340.116 4.94819 348.626 8.98487C357.261 13.0216 363.894 18.751 368.525 26.1733C373.155 33.5956 375.471 42.3851 375.471 52.542C375.471 62.5685 373.155 71.3581 368.525 78.9106C363.894 86.3329 357.261 92.0624 348.626 96.099C340.116 100.006 330.041 101.959 318.402 101.959H291.933V139.656H261.522V2.92985H318.402ZM316.713 76.1761C325.849 76.1761 332.795 74.1577 337.55 70.121C342.306 65.9542 344.684 60.0945 344.684 52.542C344.684 44.8592 342.306 38.9995 337.55 34.9629C332.795 30.796 325.849 28.7125 316.713 28.7125H291.933V76.1761H316.713Z" fill="white"/>
<path d="M455.748 142C442.357 142 430.217 139.005 419.329 133.015C408.566 126.895 400.056 118.496 393.799 107.818C387.666 97.0105 384.6 84.8354 384.6 71.293C384.6 57.7506 387.666 45.6405 393.799 34.9629C400.056 24.155 408.566 15.7561 419.329 9.76616C430.217 3.64604 442.419 0.585974 455.935 0.585974C467.324 0.585974 477.586 2.66942 486.722 6.83632C495.983 11.0032 503.743 16.9931 510 24.8061L490.477 43.5571C481.591 32.8794 470.578 27.5406 457.437 27.5406C449.302 27.5406 442.044 29.4287 435.661 33.205C429.279 36.851 424.273 41.9945 420.643 48.6355C417.139 55.2765 415.387 62.829 415.387 71.293C415.387 79.757 417.139 87.3095 420.643 93.9505C424.273 100.591 429.279 105.8 435.661 109.576C442.044 113.222 449.302 115.045 457.437 115.045C470.578 115.045 481.591 109.641 490.477 98.8336L510 117.585C503.743 125.528 495.983 131.583 486.722 135.75C477.461 139.917 467.136 142 455.748 142Z" fill="white"/>
</svg>
