<svg width="177" height="115" viewBox="0 0 177 115" fill="none" xmlns="http://www.w3.org/2000/svg">
<path d="M90.4431 83.5918H97.1568V47.4465H90.4431V83.5918ZM82.3897 83.5918H89.1019V39.4136H82.3897V83.5918ZM74.3379 83.5918H81.0485V47.4465H74.3379V83.5918Z" fill="#D9BB6C"/>
<path d="M113.257 43.4256L106.551 50.1192V27.3413H113.263M105.208 51.4555L98.4963 58.1537V19.3007H105.208M90.443 46.1058H97.1582V11.2876H90.443V46.1058ZM82.3896 38.0728H89.1002V3.26074H82.3896V38.0728ZM74.3378 46.1058H81.0469V11.2876H74.3378V46.1058ZM72.9935 58.1522L66.2813 51.4555V19.3007H72.9935M58.2295 27.3413V43.4241L64.9386 50.1207V27.3413" fill="black"/>
<path d="M20.8816 91.8391C24.2407 91.8391 26.986 94.5346 26.986 97.8286V99.1144C26.986 101.917 24.9988 104.283 22.3425 104.929L27.8684 111.739H19.8887L14.5039 105.105H11.243V111.739H3.2633V91.8406C3.17589 91.8406 12.6487 91.8391 20.8816 91.8391ZM11.243 100.462H18.0227C19.0294 100.462 19.8549 99.6535 19.8549 98.6647V98.2805C19.8549 97.2901 19.0309 96.4835 18.0227 96.4835H11.243M60.4901 111.738H71.7952C75.2709 111.738 78.1145 108.903 78.1145 105.438C78.1145 101.969 75.2709 99.1361 71.7952 99.1361H63.8937C63.3029 99.1361 62.818 98.654 62.818 98.0662V97.5519C62.818 96.9641 63.3014 96.4835 63.8937 96.4835H69.059C69.6498 96.4835 70.1332 96.9641 70.1332 97.5519V97.8075H78.1053C77.9288 94.4951 75.1589 91.8394 71.7952 91.8394H60.4901C57.0174 91.8394 54.1723 94.6742 54.1723 98.1412C54.1723 101.607 57.0174 104.441 60.4901 104.441H68.3946C68.9854 104.441 69.4703 104.924 69.4703 105.513V106.026C69.4703 106.613 68.9838 107.097 68.3946 107.097H63.2277C62.6369 107.097 62.1535 106.613 62.1535 106.026V105.77H54.1815C54.3564 109.079 57.1279 111.738 60.4901 111.738ZM96.7348 111.738H104.713V91.8394H96.7348V103.309L87.4231 91.8394H79.4449V111.738H87.4231V100.27M129.24 111.738H137.221V104.441H149.178V99.1361L137.221 99.1025V97.1463H150.675V91.8394H129.24M27.873 101.761C27.873 108.279 32.1437 111.738 40.5792 111.738C49.0162 111.738 53.2868 108.279 53.2868 101.761C53.2868 95.2421 49.0162 91.8394 40.5792 91.8394C32.1437 91.8394 27.873 95.2421 27.873 101.761ZM40.5792 96.4819C43.1726 96.4819 45.2918 98.2805 45.2918 100.485V103.093C45.2918 105.296 43.1726 107.099 40.5792 107.099C37.9888 107.099 35.8681 105.296 35.8681 103.093V100.485C35.8681 98.2805 37.9888 96.4819 40.5792 96.4819ZM106.267 111.738H128.354V106.433H114.246V104.441H126.201V99.1361L114.246 99.1025V97.1463H127.699V91.8394H106.267M158.759 111.738H166.741V97.1463H173.737V91.841H151.562V97.1463H158.759" fill="black"/>
</svg>
