<svg width="212" height="68" viewBox="0 0 212 68" fill="none" xmlns="http://www.w3.org/2000/svg">
<path d="M59.6597 8.42603H7.85181V60.1482H59.6597V8.42603Z" fill="#ED1A3A"/>
<path d="M51.2926 13.5786C50.1021 13.5786 49.2004 14.3672 48.7512 15.3148L42.228 26.0365C41.7756 27.0281 41.4454 28.1421 41.4454 28.8795C41.4454 29.5384 41.536 30.1206 41.7778 30.6572L48.8343 47.4868H21.4325C20.4461 47.4868 19.632 46.4977 19.632 45.5845V16.5945C19.4247 12.6313 13.7192 12.6335 13.5935 16.719L13.7182 47.4868C13.7182 50.8318 16.3084 53.5117 19.632 53.5117H56.9918L47.8856 30.2491C47.6343 29.383 47.5223 28.5976 48.1349 27.5652L54.1596 17.7843C54.2444 17.5803 54.3673 16.7179 54.3673 16.47C54.2479 14.6939 52.8539 13.5002 51.2926 13.5786ZM36.5011 13.5924C35.0356 13.6022 33.5718 14.6129 33.5718 16.5945V37.3392C33.5718 40.3516 29.5138 40.1037 29.5138 37.3392V16.5945C29.5138 12.6313 23.6415 12.6313 23.6415 16.5945V37.5052C23.6415 42.2874 27.2183 45.4669 31.4874 45.4669C35.8728 45.4669 39.4372 42.2874 39.4372 37.5052V16.5945C39.4372 14.5737 37.9665 13.5826 36.5011 13.5924Z" fill="white"/>
<path d="M69.8094 14.5042V28.1886C69.8094 31.6089 69.4607 33.5105 66.6712 33.5105C66.1497 33.5105 65.801 33.5105 65.2795 33.3222V39.212C66.3225 39.5949 67.0199 39.5949 67.8932 39.5949C75.7341 39.5949 76.0828 33.7019 76.0828 30.2784V20.3971H80.6127V39.212H86.8829V14.5042H69.8094Z" fill="white"/>
<path d="M88.9751 14.5042L97.5134 32.3714L94.3783 39.212H101.173L111.279 14.5042H104.484L100.824 24.9565L96.4673 14.5042H88.9751Z" fill="white"/>
<path d="M113.195 39.212H119.469V28.5683L125.915 39.212H133.929L125.045 26.4784L133.756 14.5042H126.264L119.469 24.9565V14.5042H113.195V39.212Z" fill="white"/>
<path d="M144.21 39.9746C152.573 39.9746 156.405 33.5105 156.405 26.8581C156.405 20.3972 152.573 13.9331 144.21 13.9331C136.021 13.9331 132.188 20.3972 132.188 26.8581C132.188 33.5105 136.021 39.9746 144.21 39.9746ZM144.21 34.0816C141.421 34.0816 138.634 31.6089 138.634 26.8581C138.634 22.1074 141.421 19.8261 144.21 19.8261C147.173 19.8261 149.959 22.1074 149.959 26.8581C149.959 31.6089 147.173 34.0816 144.21 34.0816Z" fill="white"/>
<path d="M159.543 14.5042V39.2121H165.641L174.352 24.3886V39.2121H180.453V14.5042H174.352L165.641 29.3308V14.5042H159.543ZM170.171 13.1737C172.784 13.1737 175.398 12.2229 176.62 9.37055L172.96 7.85181C172.436 9.75338 170.868 9.94165 170.171 9.94165C169.649 9.94165 167.906 9.75338 167.557 7.85181L163.901 9.37055C164.944 12.2229 167.733 13.1737 170.171 13.1737Z" fill="white"/>
<path d="M187.075 14.5042V28.1886C187.075 31.6089 186.723 33.5105 183.936 33.5105C183.415 33.5105 183.066 33.5105 182.542 33.3222V39.212C183.588 39.5949 184.285 39.5949 185.155 39.5949C192.996 39.5949 193.345 33.7019 193.345 30.2784V20.3971H197.875V39.212H204.148V14.5042H187.075Z" fill="white"/>
<path d="M65.3298 53.0785H66.2126V48.494H71.3676V53.0785H72.2503V44.0916H71.3676V47.7723H66.2126V44.0916H65.3298V53.0785Z" fill="white"/>
<path d="M74.4966 53.0785H79.3312V52.3568H75.3793V48.4062H79.1741V47.6845H75.3793V44.8164H79.3312V44.0916H74.4966V53.0785Z" fill="white"/>
<path d="M85.1491 53.0784H86.0224V51.842H86.3899C89.2988 51.842 90.502 50.1225 90.502 48.3213C90.502 46.2126 88.9407 44.8163 86.3899 44.8163H86.0224V43.7368H85.1491V44.8163H84.7941C82.2276 44.8163 80.6694 46.2126 80.6694 48.3213C80.6694 50.1225 81.8726 51.842 84.7941 51.842H85.1491V53.0784ZM86.0224 45.538C88.9407 45.5756 89.5816 46.9375 89.5816 48.3213C89.5816 50.4802 88.146 51.0419 86.0224 51.1172V45.538ZM85.1491 51.1172C83.0255 51.0419 81.5899 50.4802 81.5899 48.3213C81.5899 46.9375 82.2276 45.5756 85.1491 45.538V51.1172Z" fill="white"/>
<path d="M93.6904 53.0785H94.5386V44.8164H96.9323V44.0916H91.2998V44.8164H93.6904V53.0785Z" fill="white"/>
<path d="M97.9751 53.0785H98.9678L101.362 49.131H102.122V53.0785H103.008V44.0916H100.931C98.2076 44.0916 97.8149 45.8959 97.8149 46.6929C97.8149 48.2116 99.0055 49.131 100.407 49.0808L97.9751 53.0785ZM102.122 48.4062H100.846C100.124 48.4062 98.6882 48.3215 98.6882 46.605C98.6882 44.9388 100.209 44.8164 100.931 44.8164H102.122V48.4062Z" fill="white"/>
<path d="M105.266 53.0785H106.149V48.494H111.304V53.0785H112.187V44.0916H111.304V47.7723H106.149V44.0916H105.266V53.0785Z" fill="white"/>
<path d="M113.475 53.0785H114.361L115.598 50.1603H119.39L120.631 53.0785H121.514L117.477 43.8594L113.475 53.0785ZM115.919 49.4511L117.477 45.7735L119.073 49.4511H115.919Z" fill="white"/>
<path d="M122.535 53.0785H123.527L125.921 49.131H126.681V53.0785H127.564V44.0916H125.491C122.767 44.0916 122.375 45.8959 122.375 46.6929C122.375 48.2116 123.565 49.131 124.963 49.0808L122.535 53.0785ZM126.681 48.4062H125.406C124.68 48.4062 123.245 48.3215 123.245 46.605C123.245 44.9388 124.768 44.8164 125.491 44.8164H126.681V48.4062Z" fill="white"/>
<path d="M132.807 53.0785H133.69V48.7262L137.727 53.0785H138.879L134.522 48.4438L138.807 44.0916H137.727L133.69 48.2838V44.0916H132.807V53.0785Z" fill="white"/>
<path d="M144.575 53.361C147.251 53.361 149.447 51.4374 149.447 48.6039C149.447 45.7735 147.251 43.8594 144.575 43.8594C141.936 43.8594 139.74 45.7735 139.74 48.6039C139.74 51.4374 141.936 53.361 144.575 53.361ZM144.575 52.6016C142.379 52.6016 140.66 50.9573 140.66 48.6039C140.66 46.2505 142.379 44.5717 144.575 44.5717C146.774 44.5717 148.526 46.2505 148.526 48.6039C148.526 50.9573 146.774 52.6016 144.575 52.6016Z" fill="white"/>
<path d="M150.663 53.0784H151.511L152.343 46.4448L155.658 53.4832L158.934 46.4448L159.82 53.0784H160.615L159.377 43.7368L155.658 51.7667L151.901 43.7368L150.663 53.0784Z" fill="white"/>
<path d="M162.273 44.0916V53.0785H163.156V44.8164H168.311V53.0785H169.194V44.0916H162.273Z" fill="white"/>
<path d="M170.485 53.0785H171.368L172.605 50.1603H176.4L177.638 53.0785H178.521L174.484 43.8594L170.485 53.0785ZM172.926 49.4511L174.484 45.7735L176.08 49.4511H172.926Z" fill="white"/>
<path d="M179.774 53.0785H180.657V48.494H185.812V53.0785H186.698V44.0916H185.812V47.7723H180.657V44.0916H179.774V53.0785Z" fill="white"/>
<path d="M188.941 44.0914V53.4832L195.104 45.9679V53.0784H195.974V43.7368L189.827 51.2019V44.0914H188.941Z" fill="white"/>
<path d="M197.963 53.0785H198.955L201.349 49.131H202.109V53.0785H202.995V44.0916H200.922C198.195 44.0916 197.802 45.8959 197.802 46.6929C197.802 48.2116 198.993 49.131 200.394 49.0808L197.963 53.0785ZM202.109 48.4062H200.834C200.111 48.4062 198.676 48.3215 198.676 46.605C198.676 44.9388 200.196 44.8164 200.922 44.8164H202.109V48.4062Z" fill="white"/>
</svg>
