<svg width="178" height="122" viewBox="0 0 178 122" fill="none" xmlns="http://www.w3.org/2000/svg">
<path d="M83.7805 96.8431C105.679 96.8431 123.431 79.4001 123.431 57.8832C123.431 36.3663 105.679 18.9233 83.7805 18.9233C61.8823 18.9233 44.1304 36.3663 44.1304 57.8832C44.1304 79.4001 61.8823 96.8431 83.7805 96.8431Z" fill="url(#paint0_linear_89_4806)"/>
<path d="M62.0699 25.2048C57.6124 28.1134 53.8002 31.8784 50.8628 36.273L84.6759 64.5617V85.7116L123.408 53.3256C122.744 47.499 120.75 41.8948 117.575 36.9307L84.6759 63.894V43.6347L62.0699 25.2048Z" fill="url(#paint1_radial_89_4806)"/>
<path d="M50.7791 36.2876C46.4435 42.6841 44.1301 50.1977 44.1299 57.883C44.1297 79.4001 61.8818 96.8432 83.7801 96.8432C105.678 96.8432 123.43 79.4001 123.43 57.883C123.43 56.3693 123.341 54.8568 123.162 53.3533L84.4524 85.266L84.9003 64.1162L50.7791 36.2876Z" fill="url(#paint2_radial_89_4806)"/>
<path d="M23.1327 112.338C24.1653 112.338 24.9119 112.193 25.3727 111.902C25.8676 111.586 26.1151 111.128 26.1151 110.527C26.1151 109.939 25.8676 109.491 25.3727 109.181C24.9205 108.89 24.1738 108.745 23.1327 108.745H20.24V112.338H23.1327ZM23.4911 114.876H15.312V100.415H29.7631V103.234H20.24V105.926H23.4911C25.906 105.926 27.8004 106.304 29.1743 107.06C30.4201 107.744 31.0431 108.861 31.0431 110.411C31.0431 111.948 30.4201 113.058 29.1743 113.743C27.8004 114.498 25.906 114.876 23.4911 114.876Z" fill="#636163"/>
<path d="M44.287 112.019H37.3577L36.2642 114.653H31.8096L38.1749 100.193H43.4583L49.8236 114.653H45.369L44.287 112.019ZM38.4627 109.336H43.1705L40.8224 103.583L38.4627 109.336Z" fill="#636163"/>
<path d="M64.2355 112.057H69.4145V100.415H73.4103V114.876H51.0649V100.415H55.0607V112.057H60.2397V100.415H64.2355V112.057Z" fill="#636163"/>
<path d="M76.8076 100.415H81.4148V105.926H88.212V100.415H92.8193V114.876H88.212V108.745H81.4148V114.876H76.8076V100.415Z" fill="#636163"/>
<path d="M95.0864 100.415H107.619V103.234H99.7302V105.926H107.148V108.745H99.7302V112.057H107.884V114.876H95.0864V100.415Z" fill="#636163"/>
<path d="M113.947 107.588C113.947 108.751 114.249 109.592 114.854 110.111C115.466 110.63 116.432 110.944 117.75 111.052V104.113C116.432 104.221 115.466 104.539 114.854 105.066C114.249 105.585 113.947 106.426 113.947 107.588ZM126.088 107.588C126.088 106.426 125.782 105.585 125.17 105.066C124.565 104.539 123.603 104.221 122.284 104.113V111.052C123.603 110.944 124.565 110.63 125.17 110.111C125.782 109.592 126.088 108.751 126.088 107.588ZM117.75 99.0796H122.284V100.8C125.166 101.032 127.297 101.68 128.679 102.741C130.069 103.803 130.763 105.419 130.763 107.588C130.763 109.758 130.069 111.374 128.679 112.436C127.297 113.49 125.166 114.133 122.284 114.365V116.434H117.75V114.365C114.869 114.133 112.734 113.49 111.344 112.436C109.955 111.374 109.26 109.758 109.26 107.588C109.26 105.419 109.955 103.803 111.344 102.741C112.734 101.68 114.869 101.032 117.75 100.8V99.0796Z" fill="#636163"/>
<path d="M130.191 100.415H145.045V103.234H139.702V114.876H135.546V103.234H130.191V100.415Z" fill="#636163"/>
<path d="M154.68 112.338C155.668 112.338 156.383 112.193 156.824 111.902C157.298 111.586 157.535 111.128 157.535 110.527C157.535 109.939 157.298 109.491 156.824 109.181C156.391 108.89 155.677 108.745 154.68 108.745H151.911V112.338H154.68ZM162.252 110.411C162.252 111.948 161.656 113.058 160.463 113.743C159.148 114.498 157.335 114.876 155.023 114.876H147.193V100.415H151.911V105.926H155.023C157.335 105.926 159.148 106.304 160.463 107.06C161.656 107.744 162.252 108.861 162.252 110.411Z" fill="#636163"/>
<defs>
<linearGradient id="paint0_linear_89_4806" x1="97.2213" y1="29.8321" x2="85.4745" y2="59.047" gradientUnits="userSpaceOnUse">
<stop stop-color="#DB2F7B"/>
<stop offset="1" stop-color="#9B2978"/>
</linearGradient>
<radialGradient id="paint1_radial_89_4806" cx="0" cy="0" r="1" gradientUnits="userSpaceOnUse" gradientTransform="translate(83.7802 58.9962) rotate(-41.9234) scale(55.5808 35.575)">
<stop stop-color="#FCFEFA"/>
<stop offset="1" stop-color="#D6D7D6"/>
</radialGradient>
<radialGradient id="paint2_radial_89_4806" cx="0" cy="0" r="1" gradientUnits="userSpaceOnUse" gradientTransform="translate(82.2122 65.0072) rotate(-179.338) scale(38.5327 30.2778)">
<stop stop-color="#7BB631"/>
<stop offset="1" stop-color="#027E40"/>
</radialGradient>
</defs>
</svg>
