<svg width="20" height="27" viewBox="0 0 20 27" fill="none" xmlns="http://www.w3.org/2000/svg">
<path d="M4.00376 4.77656C4.22055 4.77656 4.39617 4.60094 4.39617 4.38415C4.39157 3.25072 4.99354 2.20116 5.97435 1.63313C6.95515 1.06511 8.165 1.06511 9.1458 1.63313C10.1266 2.20116 10.7286 3.25072 10.7238 4.38415C10.7238 4.60094 10.8996 4.77656 11.1162 4.77656C11.333 4.77656 11.5086 4.60094 11.5086 4.38415C11.514 2.97 10.7625 1.66073 9.53865 0.952114C8.31478 0.243501 6.80537 0.243501 5.5815 0.952114C4.35763 1.66073 3.6061 2.97 3.61136 4.38415C3.61136 4.60094 3.78719 4.77656 4.00376 4.77656Z" fill="#891F7F"/>
<path d="M4.05065 4.43468C4.29811 4.43468 4.49875 4.23403 4.49875 3.98657C4.50597 2.27663 5.89427 0.894462 7.60399 0.894462C9.31392 0.894462 10.702 2.27663 10.7092 3.98657C10.7092 4.23403 10.9099 4.43468 11.1573 4.43468C11.4048 4.43468 11.6054 4.23403 11.6054 3.98657C11.5971 1.78236 9.8082 0 7.60399 0C5.4 0 3.61085 1.78236 3.60254 3.98657C3.60254 4.23403 3.80318 4.43468 4.05065 4.43468Z" fill="#891F7F"/>
<path d="M17.8477 10.506H17.8103C17.2994 10.5032 16.8058 10.6909 16.4257 11.0324C16.1181 10.1811 15.3363 9.5691 14.4206 9.5691C13.8594 9.57303 13.3233 9.80343 12.9345 10.2084C12.577 9.48464 11.8598 8.99365 11.0351 8.99365H10.9953C10.5533 8.98686 10.122 9.13062 9.77239 9.40106V4.24105C9.77239 2.9941 8.80157 1.97974 7.62069 1.97974C6.44113 1.97974 5.47534 2.99345 5.47469 4.23952L5.46484 14.4773L4.88545 13.7736C4.37739 13.141 3.62953 12.7483 2.8204 12.689C2.0279 12.6347 1.24831 12.9104 0.666296 13.4513L0.162177 13.869C-0.000392719 14.0038 -0.0467787 14.2335 0.0505881 14.4208L4.95197 23.8422C5.84818 25.5639 7.5533 26.638 9.40196 26.638H14.9256V26.6332C17.7263 26.6332 19.997 24.203 19.9998 21.219C20.0009 19.8839 19.9959 18.8887 19.9968 18.0822C19.9996 15.9244 19.9974 15.1282 19.992 12.7509C19.9891 11.5068 19.0253 10.506 17.8477 10.506ZM19.094 18.0792C19.0931 18.8859 19.0918 19.8849 19.0905 21.2201C19.0881 23.7107 17.2079 25.7416 14.8994 25.7416H9.40218C7.88894 25.7416 6.48839 24.8522 5.74731 23.4282L1.01266 14.3302L1.24634 14.1353C1.25225 14.1305 1.25794 14.1248 1.26363 14.1197C1.66556 13.7414 2.20644 13.5471 2.75717 13.5832C3.32014 13.6263 3.83958 13.9016 4.19163 14.3429L5.5633 16.0119C5.6832 16.1583 5.88231 16.2132 6.06042 16.1496C6.23852 16.0859 6.35755 15.917 6.35755 15.7279L6.36565 4.23996C6.36608 3.48772 6.93497 2.87573 7.62113 2.87573C8.30729 2.87573 8.87618 3.48837 8.87618 4.24105V11.1677C8.87618 11.1917 8.87508 11.216 8.87508 11.2405C8.87508 11.251 8.87618 11.2617 8.87618 11.272V14.2335C8.87618 14.481 9.07682 14.6816 9.32428 14.6816C9.57175 14.6816 9.77239 14.481 9.77239 14.2335V11.1828C9.77239 10.457 10.3268 9.88986 10.9953 9.88986H11.0351C11.7217 9.88986 12.293 10.4883 12.293 11.241V13.9508C12.293 14.1983 12.4936 14.3989 12.7411 14.3989C12.9886 14.3989 13.1892 14.1983 13.1892 13.9508V11.8247C13.1892 11.0718 13.7331 10.4594 14.4235 10.4594C15.1098 10.4594 15.6538 11.0716 15.6538 11.8247V13.8305C15.6538 14.0779 15.8544 14.2786 16.1019 14.2786C16.3494 14.2786 16.55 14.0779 16.55 13.8305V12.7443C16.55 11.9915 17.1237 11.4022 17.8103 11.4022H17.8477C18.5326 11.4022 19.0907 12.0015 19.0925 12.752C19.0979 15.1275 19.0968 15.9229 19.094 18.0792Z" fill="#891F7F"/>
</svg>
