<svg width="20" height="20" viewBox="0 0 20 20" fill="none" xmlns="http://www.w3.org/2000/svg">
<path d="M12.3091 13.774L12.5518 13.8043L12.7247 13.6314L14.0619 12.2935C14.0623 12.2932 14.0626 12.2929 14.0629 12.2926C14.1743 12.1829 14.315 12.1078 14.4681 12.0764C14.6212 12.045 14.7802 12.0586 14.9257 12.1156C14.9261 12.1157 14.9265 12.1159 14.9268 12.116L16.5542 12.766C16.5546 12.7662 16.555 12.7664 16.5553 12.7665C16.7018 12.8263 16.8275 12.928 16.9165 13.0589C17.0053 13.1896 17.0537 13.3437 17.0556 13.5018V16.4881C17.0545 16.5952 17.0319 16.701 16.989 16.7993C16.946 16.898 16.8834 16.9869 16.8051 17.0608C16.7268 17.1347 16.6344 17.1919 16.5334 17.2291C16.4332 17.266 16.3267 17.2824 16.22 17.2773C10.665 16.9307 7.36484 14.4172 5.38496 11.5596C3.38975 8.67996 2.71854 5.42272 2.50474 3.60772C2.49253 3.49616 2.50397 3.38327 2.53831 3.27643C2.57279 3.16914 2.62959 3.07039 2.70494 2.98666C2.7803 2.90293 2.87252 2.83613 2.97551 2.79064C3.0785 2.74514 3.18995 2.72198 3.30252 2.72267V2.72268H3.30559H6.19303C6.35072 2.72328 6.50466 2.77099 6.6351 2.85973C6.76573 2.94859 6.86682 3.07453 6.92535 3.22139L6.92544 3.2216L7.57724 4.85476L7.57723 4.85476L7.5786 4.85812C7.63736 5.0023 7.65235 5.16062 7.6217 5.31328C7.59108 5.46582 7.51625 5.60593 7.40658 5.71616C7.40649 5.71625 7.40639 5.71634 7.4063 5.71644L6.06746 7.05581L5.88972 7.23363L5.92645 7.48236L6.42109 7.40929C5.92645 7.48236 5.92649 7.48261 5.92653 7.48288L5.92663 7.48352L5.92688 7.48516L5.9276 7.48987L5.93 7.50491C5.93204 7.5174 5.93498 7.53476 5.93893 7.55669C5.94682 7.60054 5.95877 7.66272 5.97568 7.74082C6.00949 7.8969 6.06329 8.11715 6.1445 8.38199C6.30654 8.91042 6.5799 9.6235 7.0265 10.3604C7.92475 11.8427 9.53177 13.4275 12.3091 13.774Z" fill="#000" stroke="#000"/>
</svg>
