<svg width="273" height="116" viewBox="0 0 273 116" fill="none" xmlns="http://www.w3.org/2000/svg">
<path d="M49.9877 16.215L37.0233 28.6881H22.3137H7.47949V32.4301V36.172H22.1891H36.774L49.8631 23.0752L62.9521 9.97845H137.871H212.79L225.506 23.0752L238.221 36.172H252.556H266.892L266.518 32.6795L266.144 29.3118L251.684 28.9376L237.348 28.5634L225.755 16.215L214.286 3.74189H138.619L62.9521 3.86662L49.9877 16.215Z" fill="#891F7F"/>
<path d="M7.47949 82.3226V86.0645H22.1891H36.774L49.2398 98.5376L61.7055 111.011H137.747H213.788L226.253 98.5376L238.719 86.0645H252.681H266.767V82.3226V78.5806H252.556H238.221L225.381 92.3011L212.541 106.021H138.37H64.074L50.4863 92.3011L36.774 78.5806H22.1891H7.47949V82.3226Z" fill="#891F7F"/>
</svg>
