<svg width="24" height="24" viewBox="0 0 24 24" fill="none" xmlns="http://www.w3.org/2000/svg">
<path d="M12 0C9.62663 0 7.30655 0.703788 5.33316 2.02236C3.35977 3.34094 1.8217 5.21508 0.913451 7.4078C0.00519941 9.60051 -0.232441 12.0133 0.230582 14.3411C0.693605 16.6689 1.83649 18.807 3.51472 20.4853C5.19295 22.1635 7.33115 23.3064 9.65892 23.7694C11.9867 24.2324 14.3995 23.9948 16.5922 23.0865C18.7849 22.1783 20.6591 20.6402 21.9776 18.6668C23.2962 16.6934 24 14.3734 24 12C24 10.4241 23.6896 8.8637 23.0866 7.4078C22.4835 5.95189 21.5996 4.62902 20.4853 3.51472C19.371 2.40041 18.0481 1.5165 16.5922 0.913445C15.1363 0.310389 13.5759 0 12 0ZM17.652 10.452L11.652 16.452C11.5404 16.5645 11.4077 16.6537 11.2615 16.7147C11.1153 16.7756 10.9584 16.807 10.8 16.807C10.6416 16.807 10.4847 16.7756 10.3385 16.7147C10.1923 16.6537 10.0596 16.5645 9.948 16.452L6.348 12.852C6.23612 12.7401 6.14737 12.6073 6.08681 12.4611C6.02626 12.3149 5.99509 12.1582 5.99509 12C5.99509 11.6804 6.12204 11.374 6.348 11.148C6.57397 10.922 6.88044 10.7951 7.2 10.7951C7.51957 10.7951 7.82604 10.922 8.052 11.148L10.8 13.908L15.948 8.748C16.174 8.52203 16.4804 8.39509 16.8 8.39509C17.1196 8.39509 17.426 8.52203 17.652 8.748C17.878 8.97396 18.0049 9.28044 18.0049 9.6C18.0049 9.91956 17.878 10.226 17.652 10.452Z" fill="#891F7F"/>
</svg>
