<svg width="20" height="20" viewBox="0 0 20 20" fill="none" xmlns="http://www.w3.org/2000/svg">
<path d="M3.21898 2.15402L9.99698 8.92702L16.703 2.22202C17.16 1.81502 17.633 2.05802 17.822 2.26202C17.9432 2.40975 18.0057 2.59698 17.9976 2.78792C17.9895 2.97886 17.9113 3.1601 17.778 3.29702L11.071 10.001L17.778 16.703C18.076 16.953 18.076 17.443 17.837 17.717C17.597 17.99 17.157 18.148 16.742 17.824L9.99698 11.075L3.24398 17.827C2.94798 18.092 2.45998 18.038 2.21898 17.775C1.97698 17.511 1.88498 17.055 2.19398 16.733L8.92298 10.001L2.22198 3.29702C1.97698 3.02702 1.89198 2.53302 2.22198 2.22202C2.55198 1.91102 3.04398 1.95402 3.21898 2.15402Z" fill="white"/>
</svg>
